# This file uses centimeters as units for non-parametric coordinates.

mtllib Cheese.mtl
g default
v 4.120851 0.175211 -0.641748
v 4.120851 0.175211 0.641748
v 5.798783 0.175211 0.000000
v 4.120851 1.091158 -0.641748
v 4.120851 1.091158 0.641748
v 5.798783 1.091158 0.000000
vt 0.421875 0.020934
vt 0.421875 0.291566
vt 0.656250 0.156250
vt 0.375000 0.312500
vt 0.458333 0.312500
vt 0.541667 0.312500
vt 0.625000 0.312500
vt 0.375000 0.688440
vt 0.458333 0.688440
vt 0.541667 0.688440
vt 0.625000 0.688440
vt 0.421875 0.708434
vt 0.421875 0.979066
vt 0.656250 0.843750
vn -1.000000 0.000000 -0.000000
vn -1.000000 0.000000 -0.000000
vn -1.000000 0.000000 -0.000000
vn -1.000000 0.000000 -0.000000
vn 0.357228 0.000000 0.934017
vn 0.357228 0.000000 0.934017
vn 0.357228 0.000000 0.934017
vn 0.357228 0.000000 0.934017
vn 0.357228 0.000000 -0.934017
vn 0.357228 0.000000 -0.934017
vn 0.357228 0.000000 -0.934017
vn 0.357228 0.000000 -0.934017
vn 0.000000 -1.000000 -0.000000
vn 0.000000 -1.000000 -0.000000
vn 0.000000 -1.000000 -0.000000
vn 0.000000 1.000000 -0.000000
vn 0.000000 1.000000 -0.000000
vn 0.000000 1.000000 -0.000000
s off
g pPrism1
usemtl initialShadingGroup
f 1/4/1 2/5/2 5/9/3 4/8/4
f 2/5/5 3/6/6 6/10/7 5/9/8
f 3/6/9 1/7/10 4/11/11 6/10/12
f 1/1/13 3/3/14 2/2/15
f 4/13/16 5/12/17 6/14/18
g default
v 0.951057 0.175836 -0.340735
v 0.809018 0.175836 -0.619503
v 0.587786 0.175836 -0.840735
v 0.309017 0.175836 -0.982775
v 0.000000 0.175836 -1.031718
v -0.309017 0.175836 -0.982775
v -0.587785 0.175836 -0.840735
v -0.809017 0.175836 -0.619503
v -0.951057 0.175836 0.277299
v -0.809017 0.175836 0.556068
v -0.587785 0.175836 0.777299
v -0.309017 0.175836 0.919339
v -0.000000 0.175836 0.968282
v 0.309017 0.175836 0.919339
v 0.587785 0.175836 0.777299
v 0.809017 0.175836 0.556068
v 0.951057 0.175836 0.277299
v 1.000000 0.175836 -0.031718
v 0.951057 0.620269 -0.340735
v 0.809018 0.620269 -0.619503
v 0.587786 0.620269 -0.840735
v 0.309017 0.620269 -0.982775
v 0.000000 0.620269 -1.031718
v -0.309017 0.620269 -0.982775
v -0.587785 0.620269 -0.840735
v -0.809017 0.620269 -0.619503
v -0.951057 0.620269 0.277299
v -0.809017 0.620269 0.556068
v -0.587785 0.620269 0.777299
v -0.309017 0.620269 0.919339
v -0.000000 0.620269 0.968282
v 0.309017 0.620269 0.919339
v 0.587785 0.620269 0.777299
v 0.809017 0.620269 0.556068
v 0.951057 0.620269 0.277299
v 1.000000 0.620269 -0.031718
v 0.000000 0.175836 -0.031718
v 0.000000 0.620269 -0.031718
v -0.728115 0.620269 -0.560725
v -0.529007 0.620269 -0.759833
v -0.278115 0.620269 -0.887669
v 0.000000 0.620269 -0.931718
v 0.278115 0.620269 -0.887669
v 0.529007 0.620269 -0.759834
v 0.728116 0.620269 -0.560725
v 0.855951 0.620269 -0.309833
v 0.900000 0.620269 -0.031718
v 0.855951 0.620269 0.246398
v 0.728115 0.620269 0.497289
v 0.529007 0.620269 0.696398
v 0.278115 0.620269 0.824233
v -0.000000 0.620269 0.868282
v -0.278115 0.620269 0.824233
v -0.529007 0.620269 0.696398
v -0.728115 0.620269 0.497289
v -0.855951 0.620269 0.246398
v -0.855951 0.175836 0.246398
v -0.728115 0.175836 0.497289
v -0.529007 0.175836 0.696398
v -0.278115 0.175836 0.824233
v -0.000000 0.175836 0.868282
v 0.278115 0.175836 0.824233
v 0.529007 0.175836 0.696398
v 0.728115 0.175836 0.497289
v 0.855951 0.175836 0.246398
v 0.900000 0.175836 -0.031718
v 0.855951 0.175836 -0.309833
v 0.728116 0.175836 -0.560725
v 0.529007 0.175836 -0.759834
v 0.278115 0.175836 -0.887669
v 0.000000 0.175836 -0.931718
v -0.278115 0.175836 -0.887669
v -0.529007 0.175836 -0.759833
v -0.728115 0.175836 -0.560725
v -0.072812 0.620269 -0.084619
v -0.072812 0.175836 -0.084618
v -0.085595 0.175836 -0.003906
v -0.085595 0.620269 -0.003906
v 0.000000 0.475337 -0.031718
v -0.987952 0.175836 -0.638117
v -1.129992 0.175836 -0.359349
v -1.178935 0.175836 -0.050332
v -1.129992 0.175836 0.258685
v -0.987952 0.620269 -0.638117
v -1.129992 0.620269 -0.359349
v -1.178935 0.620269 -0.050332
v -1.129992 0.620269 0.258685
v -0.178935 0.175836 -0.050332
v -0.178935 0.620269 -0.050332
v -0.907050 0.620269 -0.579339
v -1.034886 0.620269 -0.328447
v -1.078935 0.620269 -0.050332
v -1.034886 0.620269 0.227784
v -1.034886 0.175836 0.227784
v -1.078935 0.175836 -0.050332
v -1.034886 0.175836 -0.328447
v -0.907050 0.175836 -0.579339
v -0.251747 0.620269 -0.103233
v -0.264530 0.620269 -0.078143
v -0.268935 0.620269 -0.050332
v -0.264530 0.620269 -0.022520
v -0.264530 0.175836 -0.022520
v -0.268935 0.175836 -0.050332
v -0.264530 0.175836 -0.078143
v -0.251747 0.175836 -0.103233
vt 0.352433 0.332863
vt 0.346665 0.321543
vt 0.337681 0.312559
vt 0.326361 0.306791
vt 0.313812 0.304803
vt 0.301263 0.306791
vt 0.289943 0.312559
vt 0.292512 0.353781
vt 0.416835 0.375548
vt 0.280959 0.369281
vt 0.289943 0.378265
vt 0.301263 0.384033
vt 0.313812 0.386020
vt 0.326361 0.384033
vt 0.337681 0.378265
vt 0.346665 0.369281
vt 0.352433 0.357960
vt 0.354421 0.345412
vt 0.281325 0.386020
vt 0.284574 0.386020
vt 0.287822 0.386020
vt 0.291071 0.386020
vt 0.294320 0.386020
vt 0.297569 0.386020
vt 0.300817 0.386020
vt 0.317061 0.386020
vt 0.320309 0.386020
vt 0.323558 0.386020
vt 0.326807 0.386020
vt 0.330055 0.386020
vt 0.333304 0.386020
vt 0.336553 0.386020
vt 0.339801 0.386020
vt 0.343050 0.386020
vt 0.346299 0.386020
vt 0.281325 0.483725
vt 0.284574 0.483725
vt 0.287822 0.483725
vt 0.291071 0.483725
vt 0.294320 0.483725
vt 0.297569 0.483725
vt 0.300817 0.483725
vt 0.442205 0.862680
vt 0.294501 0.497633
vt 0.317061 0.483725
vt 0.320309 0.483725
vt 0.323558 0.483725
vt 0.326807 0.483725
vt 0.330055 0.483725
vt 0.333304 0.483725
vt 0.336553 0.483725
vt 0.339801 0.483725
vt 0.343050 0.483725
vt 0.346299 0.483725
vt 0.352433 0.511541
vt 0.346665 0.500221
vt 0.337681 0.491237
vt 0.326361 0.485469
vt 0.313812 0.483481
vt 0.301263 0.485469
vt 0.289943 0.491237
vt 0.280959 0.500221
vt 0.289943 0.556943
vt 0.301263 0.562711
vt 0.313812 0.564698
vt 0.326361 0.562711
vt 0.337681 0.556943
vt 0.346665 0.547959
vt 0.352433 0.536638
vt 0.354421 0.524090
vt 0.818399 0.334702
vt 0.885131 0.872273
vt 0.486498 0.863640
vt 0.292330 0.553495
vt 0.302518 0.558686
vt 0.313812 0.560475
vt 0.325106 0.558686
vt 0.335294 0.553495
vt 0.343380 0.545409
vt 0.348571 0.535221
vt 0.350360 0.523927
vt 0.348571 0.512633
vt 0.343380 0.502445
vt 0.335294 0.494359
vt 0.325106 0.489168
vt 0.313812 0.487379
vt 0.302518 0.489168
vt 0.292330 0.494359
vt 0.284244 0.502445
vt 0.456991 0.561112
vt 0.456991 0.371464
vt 0.284244 0.366732
vt 0.292330 0.374817
vt 0.302518 0.380008
vt 0.313812 0.381797
vt 0.325106 0.380008
vt 0.335294 0.374817
vt 0.343380 0.366732
vt 0.348571 0.356543
vt 0.350360 0.345249
vt 0.348571 0.333955
vt 0.343380 0.323767
vt 0.335294 0.315682
vt 0.325106 0.310490
vt 0.313812 0.308702
vt 0.302518 0.310490
vt 0.292330 0.315682
vt 0.294642 0.352782
vt 0.845268 0.871409
vt 0.845268 0.614797
vt 0.782258 0.338378
vt 0.782258 0.590244
vt 0.818399 0.509091
vt 0.312074 0.520230
vt 0.313812 0.522465
vt 0.313812 0.522465
vt 0.313812 0.522465
vt 0.313812 0.522465
vt 0.313812 0.522465
vt 0.313812 0.522465
vt 0.313812 0.522465
vt 0.313812 0.522465
vt 0.313812 0.522465
vt 0.313812 0.522465
vt 0.313812 0.522465
vt 0.313812 0.522465
vt 0.313812 0.522465
vt 0.313812 0.522465
vt 0.313812 0.522465
vt 0.313812 0.522465
vt 0.313812 0.522465
vt 0.312074 0.346326
vt 0.296432 0.369170
vt 0.296432 0.369170
vt 0.311895 0.344687
vt 0.294642 0.352782
vt 0.486498 0.626521
vt 0.311895 0.521869
vt 0.292330 0.315682
vt 0.292330 0.315682
vt 0.292330 0.315682
vt 0.302518 0.310490
vt 0.302518 0.310490
vt 0.302518 0.310490
vt 0.313812 0.308702
vt 0.313812 0.308702
vt 0.313812 0.308702
vt 0.325106 0.310490
vt 0.325106 0.310490
vt 0.325106 0.310490
vt 0.335294 0.315682
vt 0.335294 0.315682
vt 0.335294 0.315682
vt 0.343380 0.323767
vt 0.343380 0.323767
vt 0.343380 0.323767
vt 0.348571 0.333955
vt 0.348571 0.333955
vt 0.348571 0.333955
vt 0.350360 0.345249
vt 0.350360 0.345249
vt 0.350360 0.345249
vt 0.348571 0.356543
vt 0.348571 0.356543
vt 0.348571 0.356543
vt 0.343380 0.366732
vt 0.343380 0.366732
vt 0.343380 0.366732
vt 0.335294 0.374817
vt 0.335294 0.374817
vt 0.335294 0.374817
vt 0.325106 0.380008
vt 0.325106 0.380008
vt 0.325106 0.380008
vt 0.313812 0.381797
vt 0.313812 0.381797
vt 0.313812 0.381797
vt 0.302518 0.380008
vt 0.302518 0.380008
vt 0.302518 0.380008
vt 0.292330 0.374817
vt 0.292330 0.374817
vt 0.292330 0.374817
vt 0.284244 0.366732
vt 0.284244 0.366732
vt 0.284244 0.366732
vt 0.284244 0.502445
vt 0.284244 0.502445
vt 0.284244 0.502445
vt 0.296432 0.500116
vt 0.296432 0.500116
vt 0.292330 0.494359
vt 0.292330 0.494359
vt 0.292330 0.494359
vt 0.302518 0.489168
vt 0.302518 0.489168
vt 0.302518 0.489168
vt 0.313812 0.487379
vt 0.313812 0.487379
vt 0.313812 0.487379
vt 0.325106 0.489168
vt 0.325106 0.489168
vt 0.325106 0.489168
vt 0.335294 0.494359
vt 0.335294 0.494359
vt 0.335294 0.494359
vt 0.343380 0.502445
vt 0.343380 0.502445
vt 0.343380 0.502445
vt 0.348571 0.512633
vt 0.348571 0.512633
vt 0.348571 0.512633
vt 0.350360 0.523927
vt 0.350360 0.523927
vt 0.350360 0.523927
vt 0.348571 0.535221
vt 0.348571 0.535221
vt 0.348571 0.535221
vt 0.343380 0.545409
vt 0.343380 0.545409
vt 0.343380 0.545409
vt 0.335294 0.553495
vt 0.335294 0.553495
vt 0.335294 0.553495
vt 0.325106 0.558686
vt 0.325106 0.558686
vt 0.325106 0.558686
vt 0.313812 0.560475
vt 0.313812 0.560475
vt 0.313812 0.560475
vt 0.302518 0.558686
vt 0.302518 0.558686
vt 0.302518 0.558686
vt 0.292330 0.553495
vt 0.292330 0.553495
vt 0.292330 0.553495
vt 0.294642 0.516504
vt 0.294642 0.516504
vt 0.292512 0.353781
vt 0.442205 0.627969
vt 0.300817 0.386020
vt 0.289943 0.312559
vt 0.297569 0.386020
vt 0.301263 0.306791
vt 0.294320 0.386020
vt 0.313812 0.304803
vt 0.291071 0.386020
vt 0.326361 0.306791
vt 0.287822 0.386020
vt 0.337681 0.312559
vt 0.284574 0.386020
vt 0.346665 0.321543
vt 0.352433 0.332863
vt 0.343050 0.386020
vt 0.354421 0.345412
vt 0.339801 0.386020
vt 0.352433 0.357960
vt 0.336553 0.386020
vt 0.346665 0.369281
vt 0.333304 0.386020
vt 0.337681 0.378265
vt 0.330055 0.386020
vt 0.326361 0.384033
vt 0.326807 0.386020
vt 0.313812 0.386020
vt 0.323558 0.386020
vt 0.301263 0.384033
vt 0.320309 0.386020
vt 0.289943 0.378265
vt 0.317061 0.386020
vt 0.280959 0.369281
vt 0.294501 0.371990
vt 0.294501 0.371990
vt 0.343050 0.483725
vt 0.354421 0.524090
vt 0.339801 0.483725
vt 0.352433 0.511541
vt 0.336553 0.483725
vt 0.346665 0.500221
vt 0.333304 0.483725
vt 0.337681 0.491237
vt 0.330055 0.483725
vt 0.326361 0.485469
vt 0.326807 0.483725
vt 0.313812 0.483481
vt 0.323558 0.483725
vt 0.301263 0.485469
vt 0.320309 0.483725
vt 0.289943 0.491237
vt 0.317061 0.483725
vt 0.280959 0.500221
vt 0.294501 0.497633
vt 0.416835 0.557516
vt 0.292512 0.515842
vt 0.292512 0.515842
vt 0.300817 0.483725
vt 0.289943 0.556943
vt 0.297569 0.483725
vt 0.301263 0.562711
vt 0.294320 0.483725
vt 0.313812 0.564698
vt 0.291071 0.483725
vt 0.326361 0.562711
vt 0.287822 0.483725
vt 0.337681 0.556943
vt 0.284574 0.483725
vt 0.346665 0.547959
vt 0.352433 0.536638
vt 0.313812 0.343787
vt 0.313812 0.343787
vt 0.313812 0.343787
vt 0.313812 0.343787
vt 0.313812 0.343787
vt 0.313812 0.343787
vt 0.313812 0.343787
vt 0.313812 0.343787
vt 0.313812 0.343787
vt 0.313812 0.343787
vt 0.313812 0.343787
vt 0.313812 0.343787
vt 0.313812 0.343787
vt 0.313812 0.343787
vt 0.313812 0.343787
vt 0.313812 0.343787
vt 0.313812 0.343787
vt 0.782258 0.338378
vt 0.782258 0.590244
vt 0.885131 0.787884
vt 0.818399 0.593480
vt 0.456991 0.371464
vt 0.456991 0.561112
vt 0.885131 0.613494
vt 0.123854 0.398204
vt 0.145174 0.444640
vt 0.145174 0.585371
vt 0.123854 0.631631
vt 0.145174 0.444640
vt 0.149854 0.444640
vt 0.149854 0.585371
vt 0.145174 0.585371
vt 0.149854 0.444640
vt 0.126719 0.424432
vt 0.126719 0.605403
vt 0.149854 0.585371
vt 0.149526 0.382393
vt 0.151772 0.385104
vt 0.154533 0.383809
vt 0.149269 0.384019
vt 0.149526 0.382393
vt 0.154533 0.383809
vt 0.152030 0.387465
vt 0.149269 0.384019
vt 0.154533 0.383809
vt 0.151772 0.640312
vt 0.149526 0.643008
vt 0.154533 0.641171
vt 0.149526 0.643008
vt 0.149269 0.641381
vt 0.154533 0.641171
vt 0.149269 0.641381
vt 0.152030 0.637951
vt 0.154533 0.641171
vt 0.843390 0.636990
vt 0.843390 0.223698
vt 0.897526 0.217666
vt 0.897526 0.642301
vt 0.837814 0.219804
vt 0.837814 0.640885
vt 0.123854 0.631631
vt 0.098904 0.661585
vt 0.104467 0.659544
vt 0.126922 0.632585
vt 0.098904 0.661585
vt 0.096042 0.643510
vt 0.101891 0.643276
vt 0.104467 0.659544
vt 0.096042 0.643510
vt 0.126719 0.605403
vt 0.129500 0.608980
vt 0.101891 0.643276
vt 0.296019 0.284692
vt 0.356169 0.277989
vt 0.356169 0.589188
vt 0.296019 0.583287
vt 0.126719 0.424432
vt 0.096042 0.386149
vt 0.101891 0.385915
vt 0.129500 0.420369
vt 0.096042 0.386149
vt 0.098904 0.368074
vt 0.104467 0.369647
vt 0.101891 0.385915
vt 0.098904 0.368074
vt 0.123854 0.398204
vt 0.126922 0.396764
vt 0.104467 0.369647
vt 0.300409 0.628135
vt 0.300409 0.239042
vt 0.234063 0.241417
vt 0.234063 0.626561
vt 0.126922 0.632585
vt 0.104467 0.659544
vt 0.149526 0.643008
vt 0.151772 0.640312
vt 0.104467 0.659544
vt 0.101891 0.643276
vt 0.149269 0.641381
vt 0.149526 0.643008
vt 0.101891 0.643276
vt 0.129500 0.608980
vt 0.152030 0.637951
vt 0.149269 0.641381
vt 0.129500 0.420369
vt 0.101891 0.385915
vt 0.149269 0.384019
vt 0.152030 0.387465
vt 0.101891 0.385915
vt 0.104467 0.369647
vt 0.149526 0.382393
vt 0.149269 0.384019
vt 0.104467 0.369647
vt 0.126922 0.396764
vt 0.151772 0.385104
vt 0.149526 0.382393
vn 0.951057 0.000000 -0.309016
vn 0.809017 0.000000 -0.587785
vn 0.809017 0.000000 -0.587785
vn 0.951057 0.000000 -0.309016
vn 0.587785 0.000000 -0.809017
vn 0.587785 0.000000 -0.809017
vn 0.309017 0.000000 -0.951057
vn 0.309017 0.000000 -0.951057
vn -0.000000 0.000000 -1.000000
vn -0.000000 0.000000 -1.000000
vn -0.309017 0.000000 -0.951056
vn -0.309017 0.000000 -0.951056
vn -0.587785 0.000000 -0.809017
vn -0.587785 0.000000 -0.809017
vn -0.707107 0.000000 -0.707107
vn -0.707107 0.000000 -0.707107
vn -0.891006 0.000000 0.453991
vn -0.809017 0.000000 0.587785
vn -0.809017 0.000000 0.587785
vn -0.891006 0.000000 0.453991
vn -0.587785 0.000000 0.809017
vn -0.587785 0.000000 0.809017
vn -0.309017 0.000000 0.951057
vn -0.309017 0.000000 0.951057
vn 0.000000 0.000000 1.000000
vn 0.000000 0.000000 1.000000
vn 0.309017 0.000000 0.951057
vn 0.309017 0.000000 0.951057
vn 0.587785 0.000000 0.809017
vn 0.587785 0.000000 0.809017
vn 0.809017 0.000000 0.587785
vn 0.809017 0.000000 0.587785
vn 0.951057 0.000000 0.309017
vn 0.951057 0.000000 0.309017
vn 1.000000 0.000000 0.000001
vn 1.000000 0.000000 0.000001
vn 0.000000 -1.000000 0.000000
vn 0.000000 -1.000000 0.000000
vn 0.000000 -1.000000 0.000000
vn 0.000000 -1.000000 0.000000
vn 0.000000 -1.000000 0.000000
vn 0.000000 -1.000000 0.000000
vn 0.000000 -1.000000 0.000000
vn 0.000000 -1.000000 -0.000000
vn 0.000000 -1.000000 0.000000
vn 0.000000 -1.000000 0.000000
vn 0.000000 -1.000000 0.000000
vn 0.000000 -1.000000 -0.000000
vn 0.000000 -1.000000 -0.000000
vn 0.000000 -1.000000 -0.000000
vn 0.000000 -1.000000 -0.000000
vn 0.000000 -1.000000 0.000000
vn 0.000000 -1.000000 0.000000
vn 0.000000 -1.000000 0.000000
vn 0.000000 -1.000000 0.000000
vn 0.000000 -1.000000 0.000000
vn 0.000000 -1.000000 0.000000
vn 0.000000 -1.000000 0.000000
vn 0.000000 -1.000000 0.000000
vn 0.000000 -1.000000 -0.000000
vn 0.000000 -1.000000 0.000000
vn 0.000000 -1.000000 -0.000000
vn 0.000000 -1.000000 0.000000
vn 0.000000 -1.000000 0.000000
vn 0.000000 -1.000000 0.000000
vn 0.000000 -1.000000 0.000000
vn 0.000000 -1.000000 -0.000000
vn 0.000000 -1.000000 0.000000
vn 0.000000 -1.000000 0.000000
vn 0.000000 -1.000000 0.000000
vn 0.000000 -1.000000 0.000000
vn 0.000000 -1.000000 0.000000
vn 0.000000 1.000000 -0.000000
vn 0.000000 1.000000 -0.000000
vn 0.000000 1.000000 -0.000000
vn 0.000000 1.000000 0.000000
vn 0.000000 1.000000 0.000000
vn 0.000000 1.000000 0.000000
vn 0.000000 1.000000 0.000000
vn 0.000000 1.000000 0.000000
vn 0.000000 1.000000 0.000000
vn 0.000000 1.000000 0.000000
vn 0.000000 1.000000 0.000000
vn 0.000000 1.000000 0.000000
vn 0.000000 1.000000 0.000000
vn 0.000000 1.000000 0.000000
vn 0.000000 1.000000 0.000000
vn 0.000000 1.000000 0.000000
vn 0.000000 1.000000 -0.000000
vn 0.000000 1.000000 -0.000000
vn 0.000000 1.000000 -0.000000
vn 0.000000 1.000000 -0.000000
vn 0.000000 1.000000 -0.000000
vn 0.000000 1.000000 0.000000
vn 0.000000 1.000000 -0.000000
vn 0.000000 1.000000 -0.000000
vn 0.000000 1.000000 0.000000
vn 0.000000 1.000000 0.000000
vn 0.000000 1.000000 0.000000
vn 0.000000 1.000000 0.000000
vn 0.000000 1.000000 0.000000
vn 0.000000 1.000000 0.000000
vn 0.000000 1.000000 0.000000
vn 0.000000 1.000000 0.000000
vn 0.000000 1.000000 0.000000
vn 0.000000 1.000000 0.000000
vn 0.000000 1.000000 0.000000
vn 0.000000 1.000000 0.000000
vn -0.587785 0.000000 0.809017
vn -0.587785 0.000000 0.809017
vn -0.587785 0.000000 0.809017
vn -0.587785 0.000000 0.809017
vn -0.309017 0.000000 -0.951057
vn -0.309017 0.000000 -0.951057
vn -0.309017 0.000000 -0.951057
vn -0.309017 0.000000 -0.951057
vn 0.000000 1.000000 0.000000
vn 0.000000 1.000000 -0.000000
vn 0.000000 1.000000 -0.000000
vn -0.309017 0.000000 -0.951057
vn -0.309017 0.000000 -0.951057
vn -0.309017 0.000000 -0.951057
vn -0.309017 0.000000 -0.951057
vn -0.309017 0.000000 -0.951057
vn 0.000000 -1.000000 0.000000
vn 0.000000 -1.000000 0.000000
vn 0.000000 -1.000000 0.000000
vn -0.587785 -0.000000 0.809017
vn -0.587785 -0.000000 0.809017
vn -0.587785 -0.000000 0.809017
vn -0.587785 -0.000000 0.809017
vn -0.587785 -0.000000 0.809017
vn -0.891007 0.000000 -0.453990
vn -0.951057 0.000000 -0.309017
vn -0.951057 0.000000 -0.309017
vn -0.891007 0.000000 -0.453990
vn -1.000000 0.000000 0.000000
vn -1.000000 0.000000 0.000000
vn -0.987688 0.000000 0.156435
vn -0.987688 0.000000 0.156435
vn 0.000000 -1.000000 -0.000000
vn 0.000000 -1.000000 0.000000
vn 0.000000 -1.000000 -0.000000
vn 0.000000 -1.000000 -0.000000
vn 0.000000 -1.000000 0.000000
vn 0.000000 1.000000 0.000000
vn 0.000000 1.000000 0.000000
vn 0.000000 1.000000 0.000000
vn 0.000000 1.000000 0.000000
vn 0.000000 1.000000 0.000000
vn 0.309017 0.000000 0.951057
vn 0.309017 0.000000 0.951057
vn 0.309017 0.000000 0.951057
vn 0.309017 0.000000 0.951057
vn 0.587785 0.000000 -0.809017
vn 0.587785 -0.000000 -0.809017
vn 0.587785 -0.000000 -0.809017
vn 0.587785 0.000000 -0.809017
vn 0.000000 1.000000 0.000000
vn 0.000000 1.000000 -0.000000
vn 0.000000 1.000000 0.000000
vn 0.000000 1.000000 0.000000
vn 0.000000 1.000000 0.000000
vn 0.000000 1.000000 -0.000000
vn 0.000000 1.000000 0.000000
vn 0.000000 1.000000 0.000000
vn 0.309017 0.000000 0.951057
vn 0.309017 0.000000 0.951056
vn 0.309017 0.000000 0.951056
vn 0.309017 0.000000 0.951057
vn 0.000000 -1.000000 0.000000
vn 0.000000 -1.000000 0.000000
vn 0.000000 -1.000000 0.000000
vn 0.000000 -1.000000 0.000000
vn 0.000000 -1.000000 0.000000
vn 0.000000 -1.000000 0.000000
vn 0.000000 -1.000000 0.000000
vn 0.000000 -1.000000 0.000000
vn 0.587785 -0.000000 -0.809017
vn 0.587785 -0.000000 -0.809017
vn 0.587785 0.000000 -0.809017
vn 0.587785 0.000000 -0.809017
s 1
g pCylinder2
usemtl lambert2SG
f 7/33/19 8/34/20 26/320/21 25/50/22
f 8/265/20 9/35/23 27/318/24 26/51/21
f 9/263/23 10/36/25 28/316/26 27/52/24
f 10/261/25 11/37/27 29/314/28 28/53/26
f 11/259/27 12/38/29 30/312/30 29/54/28
f 12/257/29 13/39/31 31/310/32 30/55/30
f 13/255/31 14/253/33 32/308/34 31/56/32
f 15/286/35 16/40/36 34/304/37 33/306/38
f 16/284/36 17/41/39 35/302/40 34/59/37
f 17/282/39 18/42/41 36/300/42 35/60/40
f 18/280/41 19/43/43 37/298/44 36/61/42
f 19/278/43 20/44/45 38/296/46 37/62/44
f 20/276/45 21/45/47 39/294/48 38/63/46
f 21/274/47 22/46/49 40/292/50 39/64/48
f 22/272/49 23/47/51 41/290/52 40/65/50
f 23/270/51 24/48/53 42/288/54 41/66/52
f 24/268/53 7/49/19 25/68/22 42/67/54
s 3
f 8/16/55 7/267/56 73/173/57 74/169/58
f 9/17/59 8/266/55 74/170/58 75/166/60
f 10/18/61 9/264/59 75/167/60 76/163/62
f 11/19/63 10/262/61 76/164/62 77/160/64
f 12/20/65 11/260/63 77/161/64 78/157/66
f 13/21/67 12/258/65 78/158/66 79/154/68
f 14/22/69 13/256/67 79/155/68 80/150/70
f 16/24/71 15/287/72 63/147/73 64/199/74
f 17/25/75 16/285/71 64/200/74 65/196/76
f 18/26/77 17/283/75 65/197/76 66/193/78
f 19/27/79 18/281/77 66/194/78 67/190/80
f 20/28/81 19/279/79 67/191/80 68/187/82
f 21/29/83 20/277/81 68/188/82 69/184/84
f 22/30/85 21/275/83 69/185/84 70/181/86
f 23/31/87 22/273/85 70/182/86 71/178/88
f 24/32/89 23/271/87 71/179/88 72/175/90
f 7/15/56 24/269/89 72/176/90 73/172/57
s 5
f 25/83/91 26/321/92 51/235/93 52/231/94
f 26/82/92 27/319/95 50/238/96 51/234/93
f 27/81/95 28/317/97 49/241/98 50/237/96
f 28/80/97 29/315/99 48/244/100 49/240/98
f 29/79/99 30/313/101 47/247/102 48/243/100
f 30/78/101 31/311/103 46/250/104 47/246/102
f 31/77/103 32/309/105 45/251/106 46/249/104
f 33/58/107 34/305/108 61/203/109 62/205/110
f 34/76/108 35/303/111 60/208/112 61/202/109
f 35/75/111 36/301/113 59/211/114 60/207/112
f 36/74/113 37/299/115 58/214/116 59/210/114
f 37/73/115 38/297/117 57/217/118 58/213/116
f 38/72/117 39/295/119 56/220/120 57/216/118
f 39/71/119 40/293/121 55/223/122 56/219/120
f 40/70/121 41/291/123 54/226/124 55/222/122
f 41/69/123 42/289/125 53/229/126 54/225/124
f 42/84/125 25/322/91 52/232/94 53/228/126
s 7
f 14/254/127 80/151/128 45/87/129 32/57/130
s 8
f 62/345/131 63/344/132 15/23/133 33/307/134
s 5
f 46/248/104 45/252/106 81/152/135 44/129/136
f 47/245/102 46/88/104 44/130/136
f 48/242/100 47/89/102 44/131/136
f 49/239/98 48/90/100 44/132/136
f 50/236/96 49/91/98 44/133/136
f 51/233/93 50/92/96 44/134/136
f 52/230/94 51/93/93 44/135/136
f 53/227/126 52/94/94 44/136/136
f 54/224/124 53/95/126 44/137/136
f 55/221/122 54/96/124 44/138/136
f 56/218/120 55/97/122 44/139/136
f 57/215/118 56/98/120 44/140/136
f 58/212/116 57/99/118 44/141/136
f 59/209/114 58/100/116 44/142/136
f 60/206/112 59/101/114 44/143/136
f 61/201/109 60/102/112 44/144/136
f 62/204/110 61/103/109 44/145/136 84/128/137
s 8
f 43/85/138 83/340/139 84/126/140 44/343/141 85/127/142
s 3
f 64/198/74 63/148/73 83/146/143 43/323/144
f 65/195/76 64/106/74 43/324/144
f 66/192/78 65/107/76 43/325/144
f 67/189/80 66/108/78 43/326/144
f 68/186/82 67/109/80 43/327/144
f 69/183/84 68/110/82 43/328/144
f 70/180/86 69/111/84 43/329/144
f 71/177/88 70/112/86 43/330/144
f 72/174/90 71/113/88 43/331/144
f 73/171/57 72/114/90 43/332/144
f 74/168/58 73/115/57 43/333/144
f 75/165/60 74/116/58 43/334/144
f 76/162/62 75/117/60 43/335/144
f 77/159/64 76/118/62 43/336/144
f 78/156/66 77/119/64 43/337/144
f 79/153/68 78/120/66 43/338/144
f 80/122/70 79/121/68 43/339/144 82/149/145
s 7
f 81/123/146 82/124/147 43/346/148 85/342/149 44/86/150
f 45/87/129 80/151/128 82/124/147 81/123/146
s 8
f 84/341/140 83/125/139 63/105/132 62/104/131
s 9
usemtl lambert3SG
f 86/347/151 87/348/152 91/349/153 90/350/154
f 87/351/152 88/352/155 92/353/156 91/354/153
f 88/355/155 89/356/157 93/357/158 92/358/156
s 10
f 110/359/159 111/360/160 94/361/161
f 109/362/162 110/363/159 94/364/161
f 108/365/163 109/366/162 94/367/161
s 11
f 104/368/164 105/369/165 95/370/166
f 105/371/165 106/372/167 95/373/166
f 106/374/167 107/375/168 95/376/166
s 12
f 107/377/169 108/378/170 94/379/171 95/380/172
s 13
f 94/379/173 111/381/174 104/382/175 95/380/176
s 11
f 90/383/177 91/384/178 97/385/179 96/386/180
f 91/387/178 92/388/181 98/389/182 97/390/179
f 92/391/181 93/392/183 99/393/184 98/394/182
s 12
f 89/395/185 100/396/186 99/397/187 93/398/188
s 10
f 89/399/189 88/400/190 101/401/191 100/402/192
f 88/403/190 87/404/193 102/405/194 101/406/191
f 87/407/193 86/408/195 103/409/196 102/410/194
s 13
f 96/411/197 103/412/198 86/413/199 90/414/200
s 11
f 96/415/180 97/416/179 105/417/165 104/418/164
f 97/419/179 98/420/182 106/421/167 105/422/165
f 98/423/182 99/424/184 107/425/168 106/426/167
s 12
f 99/397/187 100/396/186 108/378/170 107/377/169
s 10
f 100/427/192 101/428/191 109/429/162 108/430/163
f 101/431/191 102/432/194 110/433/159 109/434/162
f 102/435/194 103/436/196 111/437/160 110/438/159
s 13
f 104/382/175 111/381/174 103/412/198 96/411/197
