# This file uses centimeters as units for non-parametric coordinates.

mtllib dirtywall.mtl
g default
v -0.480000 2.717024 1.900000
v 0.480000 2.717024 1.900000
v -0.480000 2.967024 1.900000
v 0.480000 2.967024 1.900000
v -0.480000 2.967024 -1.900000
v 0.480000 2.967024 -1.900000
v -0.480000 2.717024 -1.900000
v 0.480000 2.717024 -1.900000
v -0.480000 -0.422262 1.900000
v 0.480000 -0.422262 1.900000
v -0.480000 -0.172262 1.900000
v 0.480000 -0.172262 1.900000
v -0.480000 -0.172262 -1.900000
v 0.480000 -0.172262 -1.900000
v -0.480000 -0.422262 -1.900000
v 0.480000 -0.422262 -1.900000
v -0.472952 -0.253495 1.891807
v 0.472952 -0.253495 1.891807
v -0.472952 2.746505 1.891807
v 0.472952 2.746505 1.891807
v -0.472952 2.746505 -1.891807
v 0.472952 2.746505 -1.891807
v -0.472952 -0.253495 -1.891807
v 0.472952 -0.253495 -1.891807
vt 0.999995 0.532534
vt 0.126239 0.913493
vt 0.126240 0.946368
vt 0.754354 0.499698
vt 0.625938 0.946353
vt 0.752177 0.946349
vt 0.625937 0.913478
vt 0.752176 0.913474
vt 0.945218 0.946318
vt 0.500297 0.000001
vt 0.500303 0.532614
vt 0.755923 0.000000
vt 0.445525 0.979275
vt 0.821665 0.126240
vt 0.999994 0.499658
vt 0.626541 0.499698
vt 0.497573 0.394537
vt 0.394498 0.913452
vt 0.497573 0.000038
vt 0.000022 0.788997
vt 0.000000 0.788997
vt 0.792545 0.913481
vt 0.000000 0.394498
vt 0.398068 0.789028
vt 0.628114 0.499699
vt 0.628110 0.000001
vt 0.000001 0.946372
vt 0.754350 0.000000
vt 0.500297 0.532615
vt 0.000000 0.913497
vt 0.500302 0.565490
vt 1.000000 0.565408
vt 0.497543 0.789035
vt 0.792566 0.789096
vt 0.000030 0.394499
vt 0.394520 0.789066
vt 0.000030 0.000000
vt 0.000000 0.913383
vt 0.497543 0.394537
vt 0.398047 0.913413
vt 0.500301 0.499699
vt 0.788799 0.126239
vt 0.788790 0.000000
vt 0.626536 0.000000
vt 0.445520 0.946400
vt 0.788798 0.000000
vt 0.821664 0.000000
vt 0.945223 0.979192
vt 1.000000 0.532533
vt 0.788790 0.126240
vt 0.500297 0.499739
vt 0.755925 0.126240
vn 0.000000 0.000000 1.000000
vn 0.000000 0.000000 1.000000
vn 0.000000 0.000000 1.000000
vn 0.000000 0.000000 1.000000
vn 0.000000 1.000000 0.000000
vn 0.000000 1.000000 0.000000
vn 0.000000 1.000000 0.000000
vn 0.000000 1.000000 0.000000
vn 0.000000 0.000000 -1.000000
vn 0.000000 0.000000 -1.000000
vn 0.000000 0.000000 -1.000000
vn 0.000000 0.000000 -1.000000
vn 1.000000 0.000000 0.000000
vn 1.000000 0.000000 0.000000
vn 1.000000 0.000000 0.000000
vn 1.000000 0.000000 0.000000
vn -1.000000 0.000000 0.000000
vn -1.000000 0.000000 0.000000
vn -1.000000 0.000000 0.000000
vn -1.000000 0.000000 0.000000
vn 0.000000 0.000000 1.000000
vn 0.000000 0.000000 1.000000
vn 0.000000 0.000000 1.000000
vn 0.000000 0.000000 1.000000
vn 0.000000 0.000000 -1.000000
vn 0.000000 0.000000 -1.000000
vn 0.000000 0.000000 -1.000000
vn 0.000000 0.000000 -1.000000
vn 0.000000 -1.000000 0.000000
vn 0.000000 -1.000000 0.000000
vn 0.000000 -1.000000 0.000000
vn 0.000000 -1.000000 0.000000
vn 1.000000 0.000000 0.000000
vn 1.000000 0.000000 0.000000
vn 1.000000 0.000000 0.000000
vn 1.000000 0.000000 0.000000
vn -1.000000 0.000000 0.000000
vn -1.000000 0.000000 0.000000
vn -1.000000 0.000000 0.000000
vn -1.000000 0.000000 0.000000
vn 0.000000 0.000000 1.000000
vn 0.000000 0.000000 1.000000
vn 0.000000 0.000000 1.000000
vn 0.000000 0.000000 1.000000
vn 0.000000 0.000000 -1.000000
vn 0.000000 0.000000 -1.000000
vn 0.000000 0.000000 -1.000000
vn 0.000000 0.000000 -1.000000
vn 1.000000 0.000000 0.000000
vn 1.000000 0.000000 0.000000
vn 1.000000 0.000000 0.000000
vn 1.000000 0.000000 0.000000
vn -1.000000 0.000000 0.000000
vn -1.000000 0.000000 0.000000
vn -1.000000 0.000000 0.000000
vn -1.000000 0.000000 0.000000
s off
g polySurface3
usemtl lambert2SG
f 1/30/1 2/2/2 4/3/3 3/27/4
f 3/4/5 4/25/6 6/26/7 5/28/8
f 5/6/9 6/5/10 8/7/11 7/8/12
f 2/2/13 8/7/14 6/5/15 4/3/16
f 7/29/17 1/1/18 3/32/19 5/31/20
f 9/46/21 10/42/22 12/52/23 11/12/24
f 13/47/25 14/14/26 16/50/27 15/43/28
f 15/16/29 16/41/30 10/10/31 9/44/32
f 10/51/33 16/15/34 14/49/35 12/11/36
f 15/45/37 9/9/38 11/48/39 13/13/40
f 17/36/41 18/18/42 20/38/43 19/20/44
f 21/34/45 22/22/46 24/40/47 23/24/48
f 18/39/49 24/23/50 22/37/51 20/19/52
f 23/35/53 17/17/54 19/33/55 21/21/56
