# This file uses centimeters as units for non-parametric coordinates.

mtllib Knife.mtl
g default
v -3.008579 0.492985 -9.821413
v -2.008579 0.492985 -9.821413
v -3.008579 0.992985 -9.821413
v -2.008579 0.992985 -9.821413
v -3.008579 0.992985 -10.821413
v -2.008579 0.992985 -10.821413
v -3.008579 0.492985 -10.821413
v -2.008579 0.492985 -10.821413
v -2.008579 0.992985 -9.953183
v -3.008579 0.992985 -9.953183
v -3.008579 0.492985 -9.953183
v -2.008579 0.492985 -9.953183
v -2.008579 0.992985 -10.716131
v -3.008579 0.992985 -10.716131
v -3.008579 0.492985 -10.716131
v -2.008579 0.492985 -10.716131
v -2.148809 0.992985 -9.821413
v -2.148809 0.992985 -9.953183
v -2.148809 0.992985 -10.716131
v -2.148809 0.992985 -10.821413
v -2.148809 0.492985 -10.821413
v -2.148809 0.492985 -10.716131
v -2.148809 0.492985 -9.953183
v -2.148809 0.492985 -9.821413
v -2.881426 0.992985 -9.821413
v -2.881426 0.992985 -9.953183
v -2.881426 0.992985 -10.716131
v -2.881426 0.992985 -10.821413
v -2.881426 0.492985 -10.821413
v -2.881426 0.492985 -10.716131
v -2.881426 0.492985 -9.953183
v -2.881426 0.492985 -9.821413
v -2.881426 1.110470 -9.953183
v -2.881426 1.110470 -10.716131
v -2.148809 1.110470 -9.953183
v -2.148809 1.110470 -10.716131
v -2.881426 1.110470 -10.395558
v -2.881426 0.992985 -10.395558
v -3.008579 0.992985 -10.395558
v -3.008579 0.492985 -10.395558
v -2.881426 0.492985 -10.395558
v -2.148809 0.492985 -10.395558
v -2.008579 0.492985 -10.395558
v -2.008579 0.992985 -10.395558
v -2.148809 0.992985 -10.395558
v -2.148809 1.110470 -10.395558
v -2.881426 1.110470 -10.228287
v -2.881426 0.992985 -10.228287
v -3.008579 0.992985 -10.228287
v -3.008579 0.492985 -10.228287
v -2.881426 0.492985 -10.228287
v -2.148809 0.492985 -10.228287
v -2.008579 0.492985 -10.228287
v -2.008579 0.992985 -10.228287
v -2.148809 0.992985 -10.228287
v -2.148809 1.110470 -10.228287
v -2.545835 1.110470 -10.716131
v -2.545835 1.110470 -10.395558
v -2.545835 1.110470 -10.228287
v -2.545835 1.110470 -9.953183
v -2.545835 0.992985 -9.953183
v -2.545835 0.992985 -9.821413
v -2.545835 0.492985 -9.821413
v -2.545835 0.492985 -9.953183
v -2.545835 0.492985 -10.228287
v -2.545835 0.492985 -10.395558
v -2.545835 0.492985 -10.716131
v -2.545835 0.492985 -10.821413
v -2.545835 0.992985 -10.821413
v -2.545835 0.992985 -10.716131
v -2.484499 1.110470 -10.716131
v -2.484499 1.110470 -10.395558
v -2.484499 1.110470 -10.228287
v -2.484499 1.110470 -9.953183
v -2.484499 0.992985 -9.953183
v -2.484499 0.992985 -9.821413
v -2.484499 0.492985 -9.821413
v -2.484499 0.492985 -9.953183
v -2.484499 0.492985 -10.228287
v -2.484499 0.492985 -10.395558
v -2.484499 0.492985 -10.716131
v -2.484499 0.492985 -10.821413
v -2.484499 0.992985 -10.821413
v -2.484499 0.992985 -10.716131
v -2.543777 1.305886 -10.031276
v -2.487000 1.305886 -10.031276
v -2.543777 1.729505 -10.454896
v -2.487000 1.729505 -10.454896
v -2.543777 1.451471 -10.732930
v -2.487000 1.451471 -10.732930
v -2.487000 1.657417 -10.526985
v -2.543777 1.657417 -10.526985
v -2.543777 1.233797 -10.103365
v -2.487000 1.233797 -10.103365
v -2.543777 1.979987 -10.705378
v -2.487000 1.979987 -10.705378
v -2.487000 1.907899 -10.777467
v -2.543777 1.907899 -10.777467
vt 0.220381 0.174850
vt 0.241005 0.174850
vt 0.241005 0.337043
vt 0.220381 0.337043
vt 0.241005 0.358415
vt 0.220381 0.358415
vt 0.220381 0.499236
vt 0.241005 0.499236
vt 0.241005 0.661429
vt 0.220381 0.661429
vt 0.220381 0.802251
vt 0.241005 0.802251
vt 0.241005 0.823623
vt 0.220381 0.823623
vt 0.382575 0.174850
vt 0.403947 0.174850
vt 0.403947 0.337043
vt 0.382575 0.337043
vt 0.199009 0.174850
vt 0.199009 0.337043
vt 0.241005 0.403035
vt 0.220381 0.403035
vt 0.154389 0.174850
vt 0.154389 0.337043
vt 0.220381 0.757631
vt 0.241005 0.757631
vt 0.448567 0.174850
vt 0.448567 0.337043
vt 0.220381 0.482160
vt 0.851652 0.446513
vt 0.058188 0.174850
vt 0.075264 0.174850
vt 0.075264 0.337043
vt 0.058188 0.337043
vt 0.241005 0.678506
vt 0.220381 0.678506
vt 0.527692 0.337043
vt 0.527692 0.174850
vt 0.544768 0.174850
vt 0.544768 0.337043
vt 0.359830 0.337043
vt 0.382575 0.358415
vt 0.886581 0.410137
vt 0.886581 0.423254
vt 0.382575 0.403035
vt 0.359830 0.499236
vt 0.886581 0.446513
vt 0.382575 0.482160
vt 0.382575 0.499236
vt 0.359830 0.661429
vt 0.382575 0.661429
vt 0.359830 0.678506
vt 0.382575 0.678506
vt 0.359830 0.802251
vt 0.359830 0.757631
vt 0.382575 0.757631
vt 0.382575 0.802251
vt 0.359830 0.823623
vt 0.382575 0.823623
vt 0.359830 0.174850
vt 0.305384 0.337043
vt 0.305384 0.358415
vt 0.886581 0.423254
vt 0.870578 0.423252
vt 0.870576 0.410137
vt 0.886581 0.410137
vt 0.305384 0.499236
vt 0.870576 0.446513
vt 0.305384 0.661429
vt 0.305384 0.678506
vt 0.305384 0.802251
vt 0.305384 0.757631
vt 0.305384 0.823623
vt 0.305384 0.174850
vt 0.851652 0.410137
vt 0.851652 0.423254
vt 0.870576 0.446513
vt 0.886581 0.446513
vt 0.241005 0.430165
vt 0.851652 0.431228
vt 0.851652 0.446513
vt 0.220381 0.430165
vt 0.127259 0.174850
vt 0.127259 0.337043
vt 0.241005 0.730500
vt 0.220381 0.730500
vt 0.359830 0.730500
vt 0.305384 0.730500
vt 0.382575 0.730500
vt 0.475697 0.337043
vt 0.475697 0.174850
vt 0.886581 0.431228
vt 0.382575 0.430165
vt 0.886581 0.431228
vt 0.870577 0.431230
vt 0.867650 0.431230
vt 0.867652 0.446513
vt 0.867650 0.423252
vt 0.867652 0.410137
vt 0.295435 0.358415
vt 0.295435 0.337043
vt 0.295435 0.174850
vt 0.295435 0.802251
vt 0.295435 0.823623
vt 0.295435 0.757631
vt 0.295435 0.730500
vt 0.295435 0.678506
vt 0.295435 0.661429
vt 0.295435 0.499236
vt 0.867652 0.446513
vt 0.794680 0.661561
vt 0.639343 0.663469
vt 0.638848 0.623193
vt 0.794186 0.621285
vt 0.891255 0.520778
vt 0.890541 0.358587
vt 0.890541 0.358587
vt 0.891255 0.520778
vt 0.849202 0.520963
vt 0.848488 0.358772
vt 0.484004 0.665377
vt 0.483510 0.625101
vt 0.950018 0.659653
vt 0.949524 0.619378
vt 0.848488 0.358772
vt 0.849202 0.520963
vt 0.635033 0.312517
vt 0.790370 0.310609
vt 0.635784 0.732836
vt 0.609795 0.779857
vt 0.485418 0.780439
vt 0.799016 0.730832
vt 0.951432 0.774716
vt 0.827077 0.777189
vt 0.628715 0.188232
vt 0.791969 0.186221
vt 0.305384 0.482160
vt 0.305384 0.482160
vt 0.870576 0.446513
vt 0.870576 0.446513
vt 0.870576 0.446513
vt 0.870576 0.446513
vt 0.305384 0.499236
vt 0.305384 0.499236
vt 0.305384 0.499236
vt 0.867652 0.446513
vt 0.295435 0.482160
vt 0.295435 0.482160
vt 0.305384 0.661429
vt 0.305384 0.661429
vt 0.305384 0.661429
vt 0.359830 0.499236
vt 0.359830 0.499236
vt 0.359830 0.499236
vt 0.305384 0.678506
vt 0.305384 0.678506
vt 0.305384 0.678506
vt 0.359830 0.661429
vt 0.359830 0.661429
vt 0.359830 0.661429
vt 0.305384 0.730500
vt 0.305384 0.730500
vt 0.305384 0.730500
vt 0.359830 0.678506
vt 0.359830 0.678506
vt 0.359830 0.678506
vt 0.305384 0.757631
vt 0.305384 0.757631
vt 0.305384 0.757631
vt 0.359830 0.730500
vt 0.359830 0.730500
vt 0.359830 0.730500
vt 0.305384 0.802251
vt 0.305384 0.802251
vt 0.305384 0.802251
vt 0.359830 0.757631
vt 0.359830 0.757631
vt 0.359830 0.757631
vt 0.305384 0.174850
vt 0.305384 0.823623
vt 0.359830 0.802251
vt 0.359830 0.802251
vt 0.359830 0.802251
vt 0.305384 0.337043
vt 0.305384 0.337043
vt 0.305384 0.337043
vt 0.359830 0.174850
vt 0.359830 0.823623
vt 0.870576 0.410137
vt 0.870576 0.410137
vt 0.305384 0.358415
vt 0.359830 0.337043
vt 0.359830 0.337043
vt 0.359830 0.337043
vt 0.870576 0.410137
vt 0.870576 0.410137
vt 0.870576 0.410137
vt 0.295435 0.358415
vt 0.867652 0.410137
vt 0.867652 0.410137
vt 0.870578 0.423252
vt 0.870578 0.423252
vt 0.867652 0.410137
vt 0.867652 0.410137
vt 0.867652 0.410137
vt 0.870577 0.431230
vt 0.870577 0.431230
vt 0.867650 0.423252
vt 0.867650 0.423252
vt 0.867650 0.431230
vt 0.867650 0.431230
vt 0.867652 0.446513
vt 0.867652 0.446513
vt 0.867652 0.446513
vt 0.295435 0.499236
vt 0.295435 0.499236
vt 0.295435 0.499236
vt 0.851652 0.446513
vt 0.241005 0.482160
vt 0.241005 0.482160
vt 0.241005 0.482160
vt 0.295435 0.661429
vt 0.295435 0.661429
vt 0.295435 0.661429
vt 0.295435 0.678506
vt 0.295435 0.678506
vt 0.295435 0.678506
vt 0.295435 0.730500
vt 0.295435 0.730500
vt 0.295435 0.730500
vt 0.295435 0.757631
vt 0.295435 0.757631
vt 0.295435 0.757631
vt 0.295435 0.802251
vt 0.295435 0.802251
vt 0.295435 0.802251
vt 0.295435 0.174850
vt 0.295435 0.823623
vt 0.295435 0.337043
vt 0.295435 0.337043
vt 0.295435 0.337043
vt 0.241005 0.358415
vt 0.241005 0.358415
vt 0.851652 0.410137
vt 0.851652 0.410137
vt 0.851652 0.410137
vt 0.851652 0.410137
vt 0.851652 0.423254
vt 0.851652 0.423254
vt 0.851652 0.423254
vt 0.851652 0.431228
vt 0.851652 0.431228
vt 0.851652 0.431228
vt 0.851652 0.446513
vt 0.851652 0.446513
vt 0.886581 0.423254
vt 0.886581 0.423254
vt 0.886581 0.423254
vt 0.359830 0.403035
vt 0.359830 0.403035
vt 0.886581 0.423254
vt 0.886581 0.431228
vt 0.886581 0.431228
vt 0.886581 0.431228
vt 0.448567 0.337043
vt 0.382575 0.403035
vt 0.886581 0.431228
vt 0.359830 0.430165
vt 0.359830 0.430165
vt 0.382575 0.757631
vt 0.448567 0.174850
vt 0.382575 0.430165
vt 0.475697 0.337043
vt 0.382575 0.802251
vt 0.403947 0.174850
vt 0.241005 0.757631
vt 0.241005 0.757631
vt 0.241005 0.757631
vt 0.154389 0.174850
vt 0.220381 0.757631
vt 0.241005 0.802251
vt 0.241005 0.802251
vt 0.241005 0.802251
vt 0.220381 0.403035
vt 0.154389 0.337043
vt 0.199009 0.174850
vt 0.220381 0.802251
vt 0.851652 0.423254
vt 0.851652 0.423254
vt 0.241005 0.403035
vt 0.127259 0.337043
vt 0.220381 0.430165
vt 0.241005 0.430165
vt 0.851652 0.431228
vt 0.851652 0.431228
vt 0.886581 0.446513
vt 0.886581 0.446513
vt 0.886581 0.446513
vt 0.359830 0.482160
vt 0.359830 0.482160
vt 0.359830 0.482160
vt 0.382575 0.730500
vt 0.475697 0.174850
vt 0.382575 0.482160
vt 0.527692 0.337043
vt 0.241005 0.730500
vt 0.241005 0.730500
vt 0.241005 0.730500
vt 0.127259 0.174850
vt 0.220381 0.730500
vt 0.075264 0.337043
vt 0.220381 0.482160
vt 0.886581 0.410137
vt 0.886581 0.410137
vt 0.359830 0.358415
vt 0.359830 0.358415
vt 0.359830 0.358415
vt 0.886581 0.410137
vt 0.241005 0.823623
vt 0.241005 0.174850
vt 0.241005 0.337043
vt 0.241005 0.337043
vt 0.241005 0.337043
vt 0.241005 0.678506
vt 0.241005 0.678506
vt 0.241005 0.678506
vt 0.241005 0.661429
vt 0.241005 0.661429
vt 0.241005 0.661429
vt 0.241005 0.499236
vt 0.241005 0.499236
vt 0.241005 0.499236
vt 0.199009 0.337043
vt 0.220381 0.358415
vt 0.382575 0.174850
vt 0.527692 0.174850
vt 0.382575 0.678506
vt 0.382575 0.661429
vt 0.382575 0.499236
vt 0.382575 0.337043
vt 0.382575 0.337043
vt 0.075264 0.174850
vt 0.220381 0.678506
vt 0.220381 0.499236
vt 0.382575 0.358415
vt 0.403947 0.337043
vt 0.220381 0.174850
vt 0.220381 0.661429
vt 0.220381 0.337043
vt 0.220381 0.337043
vt 0.799016 0.730832
vt 0.794680 0.661561
vt 0.794680 0.661561
vt 0.794680 0.661561
vt 0.635784 0.732836
vt 0.639343 0.663469
vt 0.639343 0.663469
vt 0.639343 0.663469
vt 0.636446 0.427579
vt 0.484004 0.665377
vt 0.638848 0.623193
vt 0.638848 0.623193
vt 0.950018 0.659653
vt 0.791784 0.425671
vt 0.794186 0.621285
vt 0.794186 0.621285
vt 0.790370 0.310609
vt 0.635033 0.312517
vt 0.636940 0.467855
vt 0.792278 0.465947
vn 0.000000 0.000000 1.000000
vn 0.000000 0.000000 1.000000
vn 0.000000 0.000000 1.000000
vn 0.000000 0.000000 1.000000
vn 0.000000 1.000000 0.000000
vn 0.000000 1.000000 0.000000
vn 0.000000 1.000000 0.000000
vn 0.000000 1.000000 0.000000
vn 0.000000 0.000000 -1.000000
vn 0.000000 0.000000 -1.000000
vn 0.000000 0.000000 -1.000000
vn 0.000000 0.000000 -1.000000
vn 0.000000 -1.000000 0.000000
vn 0.000000 -1.000000 0.000000
vn 0.000000 -1.000000 0.000000
vn 0.000000 -1.000000 0.000000
vn 1.000000 0.000000 0.000000
vn 1.000000 0.000000 0.000000
vn 1.000000 0.000000 0.000000
vn 1.000000 0.000000 0.000000
vn -1.000000 0.000000 0.000000
vn -1.000000 0.000000 0.000000
vn -1.000000 0.000000 0.000000
vn -1.000000 0.000000 0.000000
vn 0.000000 1.000000 0.000000
vn 0.000000 1.000000 0.000000
vn -1.000000 0.000000 0.000000
vn -1.000000 0.000000 0.000000
vn 0.000000 -1.000000 0.000000
vn 0.000000 -1.000000 0.000000
vn 1.000000 0.000000 0.000000
vn 1.000000 0.000000 0.000000
vn 0.000000 1.000000 0.000000
vn 0.000000 1.000000 0.000000
vn 0.000000 1.000000 0.000000
vn 0.000000 1.000000 0.000000
vn -1.000000 0.000000 0.000000
vn -1.000000 0.000000 0.000000
vn -1.000000 0.000000 0.000000
vn -1.000000 0.000000 0.000000
vn 0.000000 -1.000000 0.000000
vn 0.000000 -1.000000 0.000000
vn 0.000000 -1.000000 0.000000
vn 0.000000 -1.000000 0.000000
vn 1.000000 0.000000 0.000000
vn 1.000000 0.000000 0.000000
vn 1.000000 0.000000 0.000000
vn 1.000000 0.000000 0.000000
vn 0.000000 1.000000 0.000000
vn 0.000000 1.000000 0.000000
vn 0.000000 1.000000 0.000000
vn 0.000000 1.000000 0.000000
vn 0.000000 1.000000 0.000000
vn 0.000000 1.000000 0.000000
vn 0.000000 1.000000 0.000000
vn 0.000000 1.000000 0.000000
vn 0.000000 1.000000 0.000000
vn 0.000000 1.000000 0.000000
vn 0.000000 0.000000 -1.000000
vn 0.000000 0.000000 -1.000000
vn 0.000000 0.000000 -1.000000
vn 0.000000 0.000000 -1.000000
vn 0.000000 -1.000000 0.000000
vn 0.000000 -1.000000 0.000000
vn 0.000000 -1.000000 0.000000
vn 0.000000 -1.000000 0.000000
vn 0.000000 -1.000000 0.000000
vn 0.000000 -1.000000 0.000000
vn 0.000000 -1.000000 0.000000
vn 0.000000 -1.000000 0.000000
vn 0.000000 -1.000000 0.000000
vn 0.000000 -1.000000 0.000000
vn 0.000000 0.000000 1.000000
vn 0.000000 0.000000 1.000000
vn 0.000000 0.000000 1.000000
vn 0.000000 0.000000 1.000000
vn 0.000000 1.000000 0.000000
vn 0.000000 1.000000 0.000000
vn 0.000000 1.000000 0.000000
vn 0.000000 1.000000 0.000000
vn 0.000000 1.000000 0.000000
vn 0.000000 1.000000 0.000000
vn 0.000000 1.000000 0.000000
vn 0.000000 1.000000 0.000000
vn 0.000000 0.000000 -1.000000
vn 0.000000 0.000000 -1.000000
vn 0.000000 -1.000000 0.000000
vn 0.000000 -1.000000 0.000000
vn 0.000000 -1.000000 0.000000
vn 0.000000 -1.000000 0.000000
vn 0.000000 -1.000000 0.000000
vn 0.000000 0.000000 1.000000
vn 0.000000 0.000000 1.000000
vn -1.000000 0.000000 0.000000
vn -1.000000 0.000000 0.000000
vn -1.000000 0.000000 0.000000
vn -1.000000 0.000000 0.000000
vn 0.000000 0.000000 1.000000
vn 0.000000 0.000000 1.000000
vn 0.000000 0.000000 1.000000
vn 0.000000 0.000000 1.000000
vn 1.000000 0.000000 0.000000
vn 1.000000 0.000000 0.000000
vn 1.000000 0.000000 0.000000
vn 1.000000 0.000000 0.000000
vn 0.000000 0.000000 -1.000000
vn 0.000000 0.000000 -1.000000
vn 0.000000 0.000000 -1.000000
vn 0.000000 0.000000 -1.000000
vn -1.000000 0.000000 0.000000
vn -1.000000 0.000000 0.000000
vn -1.000000 0.000000 0.000000
vn -1.000000 0.000000 0.000000
vn 0.000000 1.000000 0.000000
vn 0.000000 1.000000 0.000000
vn -1.000000 0.000000 0.000000
vn -1.000000 0.000000 0.000000
vn 0.000000 -1.000000 0.000000
vn 0.000000 -1.000000 0.000000
vn 0.000000 -1.000000 0.000000
vn 0.000000 -1.000000 0.000000
vn 0.000000 -1.000000 0.000000
vn 1.000000 0.000000 0.000000
vn 1.000000 0.000000 0.000000
vn 0.000000 1.000000 0.000000
vn 0.000000 1.000000 0.000000
vn 1.000000 0.000000 0.000000
vn 1.000000 0.000000 0.000000
vn 1.000000 0.000000 0.000000
vn 1.000000 0.000000 0.000000
vn 0.000000 1.000000 0.000000
vn 0.000000 1.000000 0.000000
vn 0.000000 1.000000 0.000000
vn 0.000000 1.000000 0.000000
vn 0.000000 1.000000 0.000000
vn 0.000000 1.000000 0.000000
vn 0.000000 1.000000 0.000000
vn 0.000000 1.000000 0.000000
vn 0.000000 1.000000 0.000000
vn 0.000000 1.000000 0.000000
vn 0.000000 1.000000 0.000000
vn 0.000000 1.000000 0.000000
vn 0.000000 0.000000 1.000000
vn 0.000000 0.000000 1.000000
vn 0.000000 0.000000 1.000000
vn 0.000000 0.000000 1.000000
vn 0.000000 1.000000 0.000000
vn 0.000000 1.000000 0.000000
vn 0.000000 0.000000 1.000000
vn 0.000000 0.000000 1.000000
vn 0.000000 -1.000000 0.000000
vn 0.000000 -1.000000 0.000000
vn 0.000000 -1.000000 0.000000
vn 0.000000 -1.000000 0.000000
vn 0.000000 -1.000000 0.000000
vn 0.000000 -1.000000 0.000000
vn 0.000000 0.000000 -1.000000
vn 0.000000 0.000000 -1.000000
vn 0.000000 1.000000 0.000000
vn 0.000000 1.000000 0.000000
vn 0.000000 0.000000 -1.000000
vn 0.000000 0.000000 -1.000000
vn 0.000000 0.000000 -1.000000
vn 0.000000 0.000000 -1.000000
vn 0.000000 -0.710024 0.704178
vn 0.000000 -0.710025 0.704176
vn 0.000000 -0.707107 0.707107
vn 0.000000 -0.707107 0.707107
vn 0.000000 0.707107 0.707107
vn 0.000000 0.707107 0.707107
vn 0.000000 0.707107 0.707107
vn 0.000000 0.707107 0.707107
vn 0.000000 0.707107 -0.707107
vn 0.000000 0.707107 -0.707107
vn 0.000000 0.707107 -0.707107
vn 0.000000 0.707107 -0.707107
vn 0.999990 0.004342 0.001186
vn 0.999992 0.003755 0.001026
vn 1.000000 -0.000000 0.000000
vn 1.000000 -0.000000 0.000000
vn -0.999995 0.003090 0.000844
vn -0.999993 0.003573 0.000976
vn -1.000000 -0.000000 0.000000
vn -1.000000 -0.000000 0.000000
vn 0.000000 0.707106 -0.707108
vn 0.000000 0.707106 -0.707108
vn 0.000000 0.707106 -0.707108
vn 0.000000 0.707106 -0.707108
vn 0.000000 0.707107 0.707107
vn 0.000000 0.707107 0.707107
vn 1.000000 0.000000 0.000000
vn 1.000000 0.000000 0.000000
vn 0.000000 -0.707106 -0.707107
vn 0.000000 -0.707106 -0.707107
vn 0.000000 -0.707106 -0.707107
vn 0.000000 -0.707106 -0.707107
vn -1.000000 0.000000 0.000000
vn -1.000000 0.000000 0.000000
vn 0.999981 0.005926 0.001619
vn 0.999981 0.005926 0.001619
vn 0.999981 0.005926 0.001619
vn 0.000000 -0.711635 0.702549
vn 0.000000 -0.711635 0.702549
vn -0.999987 0.004876 0.001332
vn -0.999987 0.004876 0.001332
vn -0.999987 0.004876 0.001332
vn 0.000000 -0.703315 -0.710878
vn 0.000000 -0.703315 -0.710878
vn 0.000000 -0.703315 -0.710878
vn 0.000000 -0.703315 -0.710878
s 1
g polySurface1
usemtl phong1SG
f 1/347/1 32/320/2 25/3/3 3/349/4
s 2
f 3/4/5 25/321/6 26/242/7 10/6/8
s 3
f 5/7/9 28/332/10 29/328/11 7/348/12
s 4
f 11/11/13 31/281/14 32/319/15 1/14/16
s 5
f 2/335/17 12/16/18 9/17/19 4/340/20
s 6
f 11/286/21 1/1/22 3/350/23 10/20/24
s 2
f 10/334/8 26/243/7 48/290/25 49/284/26
s 6
f 50/279/27 11/19/21 10/333/24 49/285/28
s 4
f 50/280/29 51/277/30 31/12/14 11/287/13
s 5
f 9/346/19 12/275/18 53/271/31 54/265/32
s 2
f 14/29/33 27/220/34 28/331/35 5/344/36
s 6
f 7/31/37 15/32/38 14/311/39 5/34/40
s 4
f 7/10/41 29/329/42 30/325/43 15/36/44
s 5
f 13/37/45 16/336/46 8/39/47 6/40/48
s 2
f 17/192/49 4/18/50 9/42/51 18/316/52
f 55/260/53 18/315/52 9/345/51 54/266/54
f 20/153/55 19/300/56 13/304/57 6/339/58
s 3
f 21/159/59 20/152/60 6/49/61 8/338/62
s 4
f 22/165/63 21/158/64 8/51/65 16/337/66
f 23/182/67 52/176/68 53/270/69 12/57/70
f 24/58/71 23/181/67 12/274/70 2/59/72
s 1
f 17/193/73 24/187/74 2/15/75 4/341/76
s 2
f 76/185/77 17/41/49 18/317/52 75/191/78
s 17
f 56/258/79 73/201/80 74/196/81 35/314/82
s 2
f 83/145/83 84/138/84 19/299/56 20/154/55
s 3
f 82/151/85 83/144/86 20/46/60 21/160/59
s 4
f 81/157/87 82/150/88 21/50/64 22/166/63
f 78/175/89 79/168/90 52/55/68 23/183/67
f 77/180/91 78/174/89 23/54/67 24/188/71
s 1
f 76/186/92 77/179/93 24/60/74 17/194/73
s 18
f 48/289/94 26/244/95 33/246/96 47/248/97
s 19
f 75/190/98 18/318/99 35/313/100 74/197/101
s 20
f 18/43/102 55/261/103 56/257/104 35/66/105
s 21
f 19/298/106 84/139/107 71/77/108 36/296/109
s 18
f 27/218/110 38/294/111 37/252/112 34/254/113
s 2
f 39/82/114 38/293/115 27/219/34 14/312/33
s 6
f 15/342/38 40/83/116 39/291/117 14/33/39
s 4
f 15/343/44 30/326/43 41/306/118 40/86/119
f 42/172/120 80/163/121 81/156/87 22/52/63
f 43/89/122 42/171/120 22/164/63 16/53/66
s 5
f 44/90/123 43/91/124 16/38/46 13/305/45
s 2
f 19/301/56 45/268/125 44/272/126 13/48/57
s 20
f 46/263/127 45/267/128 19/47/129 36/297/130
s 17
f 71/140/131 72/206/132 46/262/133 36/78/134
s 18
f 38/295/111 48/288/94 47/249/97 37/251/112
s 2
f 49/22/26 48/21/25 38/79/115 39/292/114
s 6
f 40/309/116 50/23/27 49/24/28 39/84/117
s 4
f 40/310/119 41/307/118 51/276/30 50/25/29
f 52/178/68 79/169/90 80/162/121 42/87/120
f 53/56/69 52/177/68 42/170/120 43/302/122
s 5
f 54/28/32 53/27/31 43/303/124 44/273/123
s 2
f 45/269/125 55/259/53 54/45/54 44/93/126
s 20
f 56/256/104 55/44/103 45/92/128 46/264/127
s 17
f 46/94/133 72/207/132 73/64/80 56/63/79
f 34/81/135 37/253/136 58/210/137 57/212/138
f 59/209/139 58/96/137 37/80/136 47/250/140
f 60/204/141 59/208/139 47/76/140 33/247/142
s 19
f 26/245/143 61/199/144 60/203/145 33/75/146
s 2
f 25/322/6 62/239/147 61/198/148 26/5/7
s 1
f 25/323/3 32/2/2 63/102/149 62/101/150
s 4
f 32/13/15 31/282/14 64/234/151 63/104/152
f 31/283/14 51/278/30 65/231/153 64/103/151
f 66/228/154 65/105/153 51/26/30 41/308/118
f 67/225/155 66/106/154 41/85/118 30/35/43
f 30/324/43 29/9/42 68/222/156 67/107/155
s 3
f 29/327/11 28/8/10 69/215/157 68/108/158
s 2
f 28/330/35 27/221/34 70/147/159 69/109/160
s 21
f 57/213/161 70/146/162 27/30/163 34/255/164
s 17
f 57/97/138 58/211/137 72/95/132 71/141/131
f 74/195/81 73/202/80 59/98/139 60/205/141
s 19
f 61/200/144 75/189/98 74/65/101 60/99/145
s 2
f 62/240/147 76/184/77 75/62/78 61/100/148
s 1
f 62/241/150 63/237/149 77/74/93 76/61/92
s 4
f 63/238/152 64/235/151 78/173/89 77/73/91
f 64/236/151 65/232/153 79/167/90 78/71/89
f 80/161/121 79/72/90 65/233/153 66/229/154
f 81/155/87 80/88/121 66/230/154 67/226/155
f 67/227/155 68/223/156 82/149/88 81/70/87
s 3
f 68/224/158 69/216/157 83/143/86 82/69/85
s 2
f 69/217/160 70/148/159 84/137/84 83/67/83
s 21
f 71/142/108 84/68/107 70/110/162 57/214/161
s 24
f 93/353/165 94/356/166 86/113/167 85/366/168
s 25
f 85/365/169 86/361/170 88/369/171 87/370/172
s off
f 95/117/173 96/118/174 97/119/175 98/120/176
s 26
f 94/357/177 91/360/178 88/122/179 86/362/180
s 27
f 92/123/181 93/352/182 85/114/183 87/124/184
s off
f 92/364/185 91/359/186 90/127/187 89/367/188
s 25
f 87/116/172 88/115/171 96/118/189 95/117/190
s 26
f 88/115/179 91/126/178 97/119/191 96/118/192
s off
f 91/126/193 92/125/194 98/120/195 97/119/196
s 27
f 92/125/181 87/116/184 95/117/197 98/120/198
s 26
f 73/129/199 72/130/200 90/131/201 91/121/178 94/358/177
s 24
f 59/132/202 73/355/203 94/112/166 93/354/165
s 27
f 89/133/204 58/134/205 59/351/206 93/111/182 92/363/181
s off
f 89/128/207 90/368/208 72/135/209 58/136/210
