# This file uses centimeters as units for non-parametric coordinates.

mtllib tile.mtl
g default
v -0.500000 -0.012500 0.500000
v 0.500000 -0.012500 0.500000
v -0.500000 0.012500 0.500000
v 0.500000 0.012500 0.500000
v -0.500000 0.012500 -0.500000
v 0.500000 0.012500 -0.500000
v -0.500000 -0.012500 -0.500000
v 0.500000 -0.012500 -0.500000
vt 0.668144 0.333120
vt 0.334981 0.999410
vt 0.000002 1.000000
vt 0.334981 0.666283
vt 0.333122 0.999998
vt 0.000262 0.666880
vt 0.333120 0.666878
vt 0.668106 0.666295
vt 0.334992 0.333163
vt 0.668113 0.333174
vt 0.333756 0.333120
vt 0.668101 0.666295
vt 0.668101 0.999415
vt 0.000000 0.000637
vt 0.333383 0.666617
vt 0.334986 0.666289
vt 0.333120 0.333497
vt -0.000000 0.666880
vt -0.000000 0.333759
vt 0.333120 0.000000
vt 0.000637 0.333757
vt 0.335023 0.333163
vt 0.668101 0.000000
vt 0.334981 0.000042
vn 0.000000 0.000000 1.000000
vn 0.000000 0.000000 1.000000
vn 0.000000 0.000000 1.000000
vn 0.000000 0.000000 1.000000
vn 0.000000 1.000000 0.000000
vn 0.000000 1.000000 0.000000
vn 0.000000 1.000000 0.000000
vn 0.000000 1.000000 0.000000
vn 0.000000 0.000000 -1.000000
vn 0.000000 0.000000 -1.000000
vn 0.000000 0.000000 -1.000000
vn 0.000000 0.000000 -1.000000
vn 0.000000 -1.000000 0.000000
vn 0.000000 -1.000000 0.000000
vn 0.000000 -1.000000 0.000000
vn 0.000000 -1.000000 0.000000
vn 1.000000 0.000000 0.000000
vn 1.000000 0.000000 0.000000
vn 1.000000 0.000000 0.000000
vn 1.000000 0.000000 0.000000
vn -1.000000 0.000000 0.000000
vn -1.000000 0.000000 0.000000
vn -1.000000 0.000000 0.000000
vn -1.000000 0.000000 0.000000
s off
g pCube2
usemtl lambert2SG
f 1/21/1 2/14/2 4/20/3 3/11/4
f 3/4/5 4/9/6 6/10/7 5/12/8
f 5/6/9 6/19/10 8/17/11 7/15/12
f 7/8/13 8/13/14 2/2/15 1/16/16
f 2/18/17 8/7/18 6/5/19 4/3/20
f 7/23/21 1/1/22 3/22/23 5/24/24
