# This file uses centimeters as units for non-parametric coordinates.

mtllib dirtypillar.mtl
g default
v -0.524584 -0.388013 0.493975
v 0.524584 -0.388013 0.493975
v -0.491598 -0.205404 0.479268
v 0.491598 -0.205404 0.479268
v -0.491598 -0.205404 -0.479268
v 0.491598 -0.205404 -0.479268
v -0.524584 -0.388013 -0.493975
v 0.524584 -0.388013 -0.493975
v -0.472952 -0.253495 0.472952
v 0.472952 -0.253495 0.472952
v -0.472952 2.746505 0.472952
v 0.472952 2.746505 0.472952
v -0.472952 2.746505 -0.472952
v 0.472952 2.746505 -0.472952
v -0.472952 -0.253495 -0.472952
v 0.472952 -0.253495 -0.472952
v 0.524584 2.912712 0.493975
v -0.524584 2.912712 0.493975
v 0.491598 2.730104 0.479268
v -0.491598 2.730104 0.479268
v 0.491598 2.730104 -0.479268
v -0.491598 2.730104 -0.479268
v 0.524584 2.912712 -0.493975
v -0.524584 2.912712 -0.493975
vt 0.962579 0.319270
vt 0.962588 0.434215
vt 0.941569 0.430603
vt 0.941561 0.322886
vt 0.941569 0.552181
vt 0.941561 0.444464
vt 0.962579 0.440849
vt 0.962588 0.555794
vt 0.266248 0.509140
vt 0.151303 0.509137
vt 0.151315 0.076185
vt 0.266260 0.076188
vt 0.346632 0.075762
vt 0.346691 0.508714
vt 0.326360 0.502272
vt 0.326303 0.082210
vt 0.372421 0.075762
vt 0.372481 0.508714
vt 0.352150 0.502272
vt 0.352092 0.082210
vt 0.936510 0.499515
vt 0.832878 0.499512
vt 0.832890 0.170837
vt 0.936521 0.170841
vt 0.481513 0.834776
vt 0.377882 0.834772
vt 0.377893 0.506097
vt 0.481524 0.506101
vt 0.927609 0.503481
vt 0.927679 0.918007
vt 0.599005 0.918063
vt 0.598934 0.503537
vt 0.358399 0.516370
vt 0.358470 0.930896
vt 0.029795 0.930952
vt 0.029725 0.516426
vt 0.964422 0.076113
vt 0.964430 0.191058
vt 0.943411 0.187446
vt 0.943403 0.079729
vt 0.941569 0.309025
vt 0.941561 0.201307
vt 0.962579 0.197692
vt 0.962588 0.312637
vt 0.144670 0.509140
vt 0.029725 0.509137
vt 0.029737 0.076185
vt 0.144682 0.076188
vt 0.293211 0.075762
vt 0.293272 0.508714
vt 0.272941 0.502272
vt 0.272881 0.082210
vt 0.320842 0.075762
vt 0.320901 0.508714
vt 0.300570 0.502272
vt 0.300513 0.082210
vn 0.000000 0.080275 0.996773
vn 0.000000 0.080275 0.996773
vn 0.000000 0.080275 0.996773
vn 0.000000 0.080275 0.996773
vn 0.000000 0.080275 -0.996773
vn 0.000000 0.080275 -0.996773
vn 0.000000 0.080275 -0.996773
vn 0.000000 0.080275 -0.996773
vn 0.000000 -1.000000 0.000000
vn 0.000000 -1.000000 0.000000
vn 0.000000 -1.000000 0.000000
vn 0.000000 -1.000000 0.000000
vn 0.984073 0.177763 0.000000
vn 0.984073 0.177763 0.000000
vn 0.984073 0.177763 0.000000
vn 0.984073 0.177763 0.000000
vn -0.984073 0.177763 0.000000
vn -0.984073 0.177763 0.000000
vn -0.984073 0.177763 0.000000
vn -0.984073 0.177763 0.000000
vn 0.000000 0.000000 1.000000
vn 0.000000 0.000000 1.000000
vn 0.000000 0.000000 1.000000
vn 0.000000 0.000000 1.000000
vn 0.000000 0.000000 -1.000000
vn 0.000000 0.000000 -1.000000
vn 0.000000 0.000000 -1.000000
vn 0.000000 0.000000 -1.000000
vn 1.000000 0.000000 0.000000
vn 1.000000 0.000000 0.000000
vn 1.000000 0.000000 0.000000
vn 1.000000 0.000000 0.000000
vn -1.000000 0.000000 0.000000
vn -1.000000 0.000000 0.000000
vn -1.000000 0.000000 0.000000
vn -1.000000 0.000000 0.000000
vn 0.000000 -0.080275 0.996773
vn 0.000000 -0.080275 0.996773
vn 0.000000 -0.080275 0.996773
vn 0.000000 -0.080275 0.996773
vn 0.000000 -0.080275 -0.996773
vn 0.000000 -0.080275 -0.996773
vn 0.000000 -0.080275 -0.996773
vn 0.000000 -0.080275 -0.996773
vn 0.000000 1.000000 0.000000
vn 0.000000 1.000000 0.000000
vn 0.000000 1.000000 0.000000
vn 0.000000 1.000000 0.000000
vn -0.984073 -0.177764 0.000000
vn -0.984073 -0.177764 0.000000
vn -0.984073 -0.177764 0.000000
vn -0.984073 -0.177764 0.000000
vn 0.984073 -0.177763 0.000000
vn 0.984073 -0.177763 0.000000
vn 0.984073 -0.177763 0.000000
vn 0.984073 -0.177763 0.000000
s off
g polySurface15
usemtl lambert2SG
f 1/1/1 2/2/2 4/3/3 3/4/4
f 5/5/5 6/6/6 8/7/7 7/8/8
f 7/9/9 8/10/10 2/11/11 1/12/12
f 2/13/13 8/14/14 6/15/15 4/16/16
f 7/17/17 1/18/18 3/19/19 5/20/20
f 9/21/21 10/22/22 12/23/23 11/24/24
f 13/25/25 14/26/26 16/27/27 15/28/28
f 10/29/29 16/30/30 14/31/31 12/32/32
f 15/33/33 9/34/34 11/35/35 13/36/36
f 17/37/37 18/38/38 20/39/39 19/40/40
f 21/41/41 22/42/42 24/43/43 23/44/44
f 23/45/45 24/46/46 18/47/47 17/48/48
f 18/49/49 24/50/50 22/51/51 20/52/52
f 23/53/53 17/54/54 19/55/55 21/56/56
