# This file uses centimeters as units for non-parametric coordinates.

mtllib Lettuce3.mtl
g default
v 0.748017 -0.013182 0.680242
v -1.027753 -0.059593 0.305897
v 0.216453 0.050969 -1.102562
v -0.215264 -0.059816 1.023617
v -0.750370 -0.054678 -0.744230
v 0.936487 0.065947 -0.432438
v -0.000401 -0.117497 -0.038381
v 0.907966 -0.021354 0.117157
v 0.344808 -0.065080 0.988953
v -0.107632 -0.065892 0.492398
v 0.550703 0.029586 -0.276979
v 0.341772 -0.013071 0.321383
v -0.717656 -0.057807 0.773601
v -1.062464 -0.064695 -0.254173
v -0.406713 -0.025445 -0.407124
v -0.513876 -0.065781 0.133538
v -0.274040 -0.059047 -0.822345
v 0.584574 -0.091369 -0.770876
v 0.108629 -0.006609 -0.571788
v 0.807837 0.048803 -0.363374
v 1.081976 -0.082138 -0.105786
v 0.734354 -0.075660 0.248285
v 0.460060 -0.075117 0.054429
v 0.752585 -0.078454 -0.024537
v 0.970547 -0.075848 0.444172
v 0.526951 0.019717 0.807471
v 0.304143 0.015445 0.598464
v 0.592029 -0.013140 0.542449
v 0.149223 -0.034649 0.977983
v -0.161448 -0.062854 0.758007
v 0.077923 0.015039 0.350187
v 0.107039 -0.065717 0.706252
v -0.053816 -0.068930 0.226789
v 0.256938 -0.075061 -0.125000
v 0.203122 -0.072023 0.140609
v -0.398292 0.005137 0.909294
v -0.615766 -0.061794 0.453569
v -0.226667 -0.043302 0.376792
v -0.338601 -0.005072 0.608719
v -0.903490 -0.058232 0.560159
v -0.966912 -0.115737 -0.026040
v -0.788170 -0.065238 -0.060317
v -0.830437 -0.061969 0.239716
v -0.774667 -0.111835 -0.517286
v -0.609835 -0.025389 -0.586554
v -0.460060 -0.068819 -0.132071
v -0.698768 -0.068519 -0.318714
v -0.203122 -0.071912 -0.218251
v -0.257339 -0.114404 0.047798
v -0.599061 -0.075418 -0.942355
v -0.118588 -0.078450 -0.818317
v -0.150091 -0.164072 -0.483000
v -0.363977 -0.075125 -0.697714
v -0.065868 0.053266 -1.122098
v 0.351022 0.044260 -0.930257
v 0.412644 -0.082086 -0.710641
v 0.175125 0.053303 -0.898588
v 0.903490 -0.085703 -0.637800
v 0.310166 -0.144910 -0.389965
v 0.591729 -0.081667 -0.504000
v 0.053228 -0.141817 -0.303785
v 0.460818 -0.119389 0.057172
v 0.559058 -0.013864 -0.273751
v 0.812397 0.004718 -0.361427
v 0.749679 -0.122296 -0.030664
v 0.940205 0.031047 -0.429814
v 1.082831 -0.122456 -0.112664
v 0.907328 -0.063739 0.126963
v 0.727882 -0.118064 0.259602
v 0.347060 -0.055815 0.332015
v 0.963500 -0.118704 0.452462
v 0.590035 -0.057377 0.545131
v 0.743121 -0.056926 0.685771
v 0.531105 -0.022268 0.803609
v 0.353771 -0.107163 0.980390
v 0.313712 -0.026977 0.589696
v 0.152582 -0.078733 0.977472
v 0.113230 -0.109420 0.701806
v -0.234379 -0.090459 1.021209
v -0.183933 -0.100959 0.754779
v -0.123136 -0.107422 0.494103
v 0.091867 -0.026596 0.356525
v -0.056108 -0.112147 0.236542
v 0.214022 -0.112980 0.153717
v 0.000821 -0.161728 -0.035189
v 0.266539 -0.118291 -0.122330
v -0.307957 -0.204313 0.378633
v -0.350182 -0.047598 0.613767
v -0.405340 -0.020911 0.909264
v -0.704785 -0.097504 0.777617
v -0.604793 -0.104295 0.459997
v -0.511797 -0.109372 0.141510
v -0.903241 -0.102488 0.562490
v -0.829170 -0.106293 0.241076
v -1.026864 -0.103745 0.310133
v -0.960919 -0.159144 -0.026412
v -1.056747 -0.108092 -0.254408
v -0.784634 -0.109457 -0.060818
v -0.757981 -0.146709 -0.522456
v -0.687230 -0.110702 -0.326166
v -0.743268 -0.084863 -0.741585
v -0.604847 -0.069465 -0.585870
v -0.415063 -0.068846 -0.410960
v -0.459577 -0.112299 -0.140863
v -0.214660 -0.114610 -0.221696
v -0.263116 -0.158252 0.051267
v -0.158167 -0.207651 -0.484940
v -0.375257 -0.115422 -0.682983
v -0.610858 -0.113049 -0.923560
v -0.273441 -0.089008 -0.864545
v -0.107600 -0.121034 -0.824142
v 0.110507 -0.048862 -0.585849
v -0.057584 0.011908 -1.128740
v 0.176659 0.009284 -0.903888
v 0.215363 0.006621 -1.102276
v 0.346782 0.002696 -0.940232
v 0.580595 -0.132924 -0.780181
v 0.406682 -0.124834 -0.720895
v 0.910030 -0.123851 -0.623204
v 0.597597 -0.123480 -0.490388
v 0.317758 -0.188614 -0.389344
v 0.053947 -0.185992 -0.307802
vt 0.283494 0.500000
vt 0.283494 0.625000
vt 0.175240 0.687500
vt 0.158494 0.562500
vt 0.066987 0.750000
vt 0.017037 0.629409
vt 0.000000 0.500000
vt 0.141747 0.437500
vt 0.283494 0.375000
vt 0.017037 0.370590
vt 0.150120 0.297997
vt 0.066987 0.250000
vt 0.146447 0.146447
vt 0.250000 0.066987
vt 0.266747 0.220994
vt 0.370591 0.017037
vt 0.383373 0.172997
vt 0.500000 0.000000
vt 0.500000 0.125000
vt 0.500000 0.250000
vt 0.391747 0.312500
vt 0.500000 0.375000
vt 0.391747 0.437500
vt 0.500000 0.500000
vt 0.391747 0.562500
vt 0.608253 0.312500
vt 0.616627 0.172997
vt 0.629410 0.017037
vt 0.750000 0.066987
vt 0.733253 0.220994
vt 0.716506 0.375000
vt 0.853553 0.146447
vt 0.849880 0.297997
vt 0.933013 0.250000
vt 0.982963 0.370591
vt 1.000000 0.500000
vt 0.858253 0.437500
vt 0.982963 0.629410
vt 0.841506 0.562500
vt 0.933013 0.750000
vt 0.824759 0.687500
vt 0.716506 0.625000
vt 0.716506 0.500000
vt 0.608253 0.562500
vt 0.608253 0.437500
vt 0.608253 0.687500
vt 0.724880 0.764503
vt 0.853553 0.853553
vt 0.750000 0.933013
vt 0.625000 0.841506
vt 0.500000 0.750000
vt 0.629409 0.982963
vt 0.500000 0.904006
vt 0.500000 1.000000
vt 0.370590 0.982963
vt 0.250000 0.933013
vt 0.375000 0.841506
vt 0.146447 0.853553
vt 0.275120 0.764503
vt 0.391747 0.687500
vt 0.500000 0.625000
vt 0.283494 0.500000
vt 0.158494 0.562500
vt 0.175240 0.687500
vt 0.283494 0.625000
vt 0.017037 0.629409
vt 0.066987 0.750000
vt 0.141747 0.437500
vt 0.000000 0.500000
vt 0.283494 0.375000
vt 0.150120 0.297997
vt 0.017037 0.370590
vt 0.146447 0.146447
vt 0.066987 0.250000
vt 0.266747 0.220994
vt 0.250000 0.066987
vt 0.383373 0.172997
vt 0.370591 0.017037
vt 0.500000 0.125000
vt 0.500000 0.000000
vt 0.391747 0.312500
vt 0.500000 0.250000
vt 0.391747 0.437500
vt 0.500000 0.375000
vt 0.391747 0.562500
vt 0.500000 0.500000
vt 0.608253 0.312500
vt 0.616627 0.172997
vt 0.629410 0.017037
vt 0.733253 0.220994
vt 0.750000 0.066987
vt 0.716506 0.375000
vt 0.849880 0.297997
vt 0.853553 0.146447
vt 0.982963 0.370591
vt 0.933013 0.250000
vt 0.858253 0.437500
vt 1.000000 0.500000
vt 0.841506 0.562500
vt 0.982963 0.629410
vt 0.824759 0.687500
vt 0.933013 0.750000
vt 0.716506 0.500000
vt 0.716506 0.625000
vt 0.608253 0.437500
vt 0.608253 0.562500
vt 0.608253 0.687500
vt 0.724880 0.764503
vt 0.853553 0.853553
vt 0.625000 0.841506
vt 0.750000 0.933013
vt 0.500000 0.750000
vt 0.500000 0.904006
vt 0.629409 0.982963
vt 0.370590 0.982963
vt 0.500000 1.000000
vt 0.375000 0.841506
vt 0.250000 0.933013
vt 0.275120 0.764503
vt 0.146447 0.853553
vt 0.391747 0.687500
vt 0.500000 0.625000
vt 0.066987 0.750000
vt 0.017037 0.629409
vt 0.000000 0.500000
vt 0.017037 0.370590
vt 0.066987 0.250000
vt 0.146447 0.146447
vt 0.250000 0.066987
vt 0.370591 0.017037
vt 0.500000 0.000000
vt 0.629410 0.017037
vt 0.750000 0.066987
vt 0.853553 0.146447
vt 0.933013 0.250000
vt 0.982963 0.370591
vt 1.000000 0.500000
vt 0.982963 0.629410
vt 0.933013 0.750000
vt 0.853553 0.853553
vt 0.750000 0.933013
vt 0.629409 0.982963
vt 0.500000 1.000000
vt 0.370590 0.982963
vt 0.250000 0.933013
vt 0.146447 0.853553
vn -0.006390 -0.999236 -0.038547
vn 0.125185 -0.991594 0.032713
vn 0.072882 -0.996631 -0.037610
vn -0.022193 -0.989119 -0.145434
vn 0.097430 -0.995077 0.018137
vn -0.008172 -0.968834 -0.247577
vn 0.111798 -0.986444 0.120126
vn -0.027466 -0.996679 0.076656
vn -0.036344 -0.991624 0.123940
vn -0.030846 -0.998994 0.032560
vn -0.062652 -0.995326 0.073495
vn -0.115244 -0.984978 0.128596
vn 0.043849 -0.998731 -0.024782
vn 0.100837 -0.991776 -0.078823
vn 0.042949 -0.998614 -0.030429
vn 0.058609 -0.998279 0.002007
vn 0.074907 -0.996093 -0.046779
vn -0.118957 -0.991745 0.047857
vn -0.079678 -0.995753 0.046126
vn 0.126229 -0.990709 0.050624
vn 0.146940 -0.984903 0.091512
vn 0.226154 -0.968241 0.106600
vn 0.097469 -0.983008 0.155549
vn 0.028100 -0.996955 0.072742
vn 0.155964 -0.984137 0.084555
vn -0.037726 -0.993173 0.110381
vn -0.047131 -0.986632 0.156000
vn -0.058564 -0.996750 0.055324
vn 0.119012 -0.990377 0.070642
vn -0.027838 -0.995623 0.089219
vn -0.119108 -0.992861 0.006379
vn 0.003268 -0.999532 0.030425
vn 0.020138 -0.999328 0.030630
vn 0.019938 -0.995391 0.093810
vn 0.200281 -0.977496 -0.066248
vn 0.057826 -0.997425 0.042423
vn 0.053029 -0.998593 -0.000533
vn 0.209433 -0.977736 -0.013043
vn 0.057596 -0.998318 -0.006568
vn 0.010957 -0.996874 0.078248
vn 0.011511 -0.999809 0.015825
vn -0.129297 -0.991521 0.012992
vn -0.042231 -0.995255 -0.087662
vn -0.130373 -0.990050 0.052951
vn -0.042958 -0.997176 -0.061606
vn -0.055841 -0.996735 -0.058315
vn -0.075731 -0.996702 -0.029140
vn -0.072677 -0.995641 0.058459
vn 0.070898 -0.971054 -0.228098
vn 0.130606 -0.956062 -0.262465
vn 0.056184 -0.963941 -0.260118
vn 0.128469 -0.946389 -0.296386
vn 0.022048 -0.978090 -0.207013
vn -0.026608 -0.999612 0.008228
vn -0.125441 -0.937954 -0.323276
vn -0.039306 -0.996549 -0.073106
vn -0.072599 -0.973650 -0.216182
vn 0.163716 -0.934938 0.314782
vn 0.115562 -0.974324 0.193232
vn 0.130702 -0.991393 0.007554
vn 0.041581 -0.998526 -0.034890
vn 0.003937 0.999094 0.042385
vn 0.027656 0.989040 0.145036
vn -0.059849 0.997795 0.028709
vn -0.132386 0.990590 -0.034723
vn 0.030903 0.968839 0.245755
vn -0.074846 0.996620 -0.033857
vn 0.029476 0.996570 -0.077326
vn -0.106719 0.986504 -0.124184
vn 0.032535 0.991595 -0.125221
vn 0.061353 0.995382 -0.073829
vn 0.030640 0.998936 -0.034470
vn -0.044452 0.998570 0.029690
vn 0.110359 0.986047 -0.124625
vn -0.043127 0.998637 0.029398
vn -0.097161 0.992063 0.079816
vn -0.089464 0.994688 0.050918
vn -0.074576 0.997182 0.008098
vn 0.080494 0.996707 0.009798
vn 0.099039 0.994832 -0.022361
vn -0.157026 0.983387 -0.091065
vn -0.005042 0.999935 0.010207
vn -0.098896 0.983632 -0.150623
vn -0.100258 0.983542 -0.150310
vn -0.160513 0.983801 -0.079816
vn -0.027899 0.997001 -0.072192
vn 0.041893 0.994656 -0.094361
vn -0.001093 0.998688 -0.051196
vn 0.042932 0.998876 -0.020107
vn -0.057001 0.997059 -0.051230
vn -0.109257 0.992873 -0.047596
vn 0.033106 0.997554 -0.061559
vn -0.018148 0.999428 -0.028546
vn 0.003522 0.999672 -0.025384
vn -0.201177 0.977258 0.067046
vn -0.020036 0.995232 -0.095461
vn -0.053311 0.998570 -0.003963
vn -0.058450 0.996618 -0.057768
vn -0.062710 0.998031 -0.001233
vn -0.233136 0.972411 -0.007997
vn -0.029831 0.999243 -0.024971
vn -0.050094 0.994825 -0.088394
vn 0.030835 0.998259 0.050286
vn 0.129406 0.991532 -0.010885
vn 0.081484 0.996012 -0.036339
vn 0.133030 0.989849 -0.050024
vn 0.057070 0.996898 0.054193
vn 0.071352 0.997419 0.008008
vn 0.056145 0.993170 -0.102283
vn -0.143541 0.952317 0.269236
vn -0.086515 0.970178 0.226430
vn -0.058727 0.963082 0.262724
vn -0.021269 0.979900 0.198353
vn -0.123985 0.950365 0.285367
vn 0.124740 0.940048 0.317412
vn 0.024567 0.999677 -0.006457
vn 0.078371 0.971473 0.223828
vn 0.048883 0.995835 0.076956
vn -0.114969 0.973167 -0.199319
vn -0.156330 0.930615 -0.330934
vn -0.134714 0.990794 -0.013365
vn -0.041428 0.998835 0.024748
vn 0.945156 0.080573 -0.316526
vn 0.923049 0.077434 -0.376809
vn 0.923049 0.077434 -0.376809
vn 0.945842 0.080675 -0.314442
vn 0.800523 0.023298 0.598849
vn 0.800523 0.023298 0.598849
vn 0.800523 0.023298 0.598849
vn 0.800523 0.023298 0.598849
vn 0.971462 -0.129744 -0.198564
vn 0.971462 -0.129744 -0.198564
vn 0.971462 -0.129744 -0.198564
vn 0.971462 -0.129744 -0.198564
vn 0.728457 0.008849 0.685034
vn 0.636288 0.010561 0.771380
vn 0.636291 0.010561 0.771377
vn 0.728458 0.008849 0.685034
vn 0.611118 0.008702 0.791492
vn 0.605858 0.008891 0.795523
vn 0.704695 0.005086 0.709492
vn 0.704695 0.005086 0.709492
vn -0.051328 -0.111847 0.992399
vn 0.062957 -0.080587 0.994757
vn 0.049929 -0.084220 0.995196
vn -0.051328 -0.111847 0.992399
vn 0.120962 -0.064192 0.990579
vn 0.120962 -0.064192 0.990579
vn -0.478774 0.184043 0.858431
vn -0.437028 0.093105 0.894616
vn -0.428126 0.074875 0.900612
vn -0.478774 0.184043 0.858431
vn -0.613333 -0.030436 0.789238
vn -0.569777 -0.019468 0.821569
vn -0.832244 -0.020686 0.554024
vn -0.828307 -0.022889 0.559807
vn -0.898084 0.021073 0.439318
vn -0.898084 0.021073 0.439319
vn -0.981445 -0.084734 -0.172004
vn -0.981445 -0.084734 -0.172004
vn -0.981445 -0.084734 -0.172004
vn -0.981445 -0.084734 -0.172004
vn -0.924468 -0.127233 0.359404
vn -0.924468 -0.127233 0.359404
vn -0.924468 -0.127233 0.359404
vn -0.924468 -0.127233 0.359404
vn -0.675732 -0.143489 -0.723047
vn -0.780475 -0.206091 -0.590242
vn -0.823651 -0.235098 -0.516070
vn -0.675732 -0.143489 -0.723047
vn -0.885345 -0.228749 -0.404768
vn -0.891649 -0.238789 -0.384632
vn -0.802580 -0.128587 -0.582520
vn -0.802580 -0.128587 -0.582520
vn 0.234062 0.283279 -0.930036
vn 0.234062 0.283279 -0.930036
vn 0.234062 0.283279 -0.930037
vn 0.234062 0.283279 -0.930036
vn -0.816787 0.253270 -0.518376
vn -0.816787 0.253270 -0.518376
vn -0.816787 0.253270 -0.518376
vn -0.816787 0.253270 -0.518376
vn 0.083385 0.080658 -0.993248
vn 0.083385 0.080659 -0.993248
vn 0.083385 0.080658 -0.993248
vn 0.083385 0.080658 -0.993248
vn 0.782720 0.021587 -0.621999
vn 0.685855 0.080964 -0.723221
vn 0.685380 0.081228 -0.723641
vn 0.782720 0.021587 -0.621999
vn 0.511016 0.035609 -0.858833
vn 0.507994 0.033041 -0.860727
vn 0.408805 -0.047367 -0.911392
vn 0.408805 -0.047367 -0.911392
vn 0.971985 0.084831 -0.219200
vn 0.971985 0.084831 -0.219200
s 1
g pasted__polySurface30 pasted__polySurface18 group13
usemtl pasted__lambert7SG
f 62/1/1 63/2/2 64/3/3 65/4/4
f 64/3/3 66/5/5 67/6/6 65/4/4
f 67/6/6 68/7/7 69/8/8 65/4/4
f 69/8/8 70/9/9 62/1/1 65/4/4
f 69/8/8 68/7/7 71/10/10 72/11/11
f 71/10/10 73/12/12 74/13/13 72/11/11
f 74/13/13 75/14/14 76/15/15 72/11/11
f 76/15/15 70/9/9 69/8/8 72/11/11
f 76/15/15 75/14/14 77/16/16 78/17/17
f 77/16/16 79/18/18 80/19/19 78/17/17
f 80/19/19 81/20/20 82/21/21 78/17/17
f 82/21/21 70/9/9 76/15/15 78/17/17
f 82/21/21 81/20/20 83/22/22 84/23/23
f 83/22/22 85/24/24 86/25/25 84/23/23
f 86/25/25 63/2/2 62/1/1 84/23/23
f 62/1/1 70/9/9 82/21/21 84/23/23
f 87/26/26 81/20/20 80/19/19 88/27/27
f 80/19/19 79/18/18 89/28/28 88/27/27
f 89/28/28 90/29/29 91/30/30 88/27/27
f 91/30/30 92/31/31 87/26/26 88/27/27
f 91/30/30 90/29/29 93/32/32 94/33/33
f 93/32/32 95/34/34 96/35/35 94/33/33
f 96/35/35 97/36/36 98/37/37 94/33/33
f 98/37/37 92/31/31 91/30/30 94/33/33
f 98/37/37 97/36/36 99/38/38 100/39/39
f 99/38/38 101/40/40 102/41/41 100/39/39
f 102/41/41 103/42/42 104/43/43 100/39/39
f 104/43/43 92/31/31 98/37/37 100/39/39
f 104/43/43 103/42/42 105/44/44 106/45/45
f 105/44/44 85/24/24 83/22/22 106/45/45
f 83/22/22 81/20/20 87/26/26 106/45/45
f 87/26/26 92/31/31 104/43/43 106/45/45
f 107/46/46 103/42/42 102/41/41 108/47/47
f 102/41/41 101/40/40 109/48/48 108/47/47
f 109/48/48 110/49/49 111/50/50 108/47/47
f 111/50/50 112/51/51 107/46/46 108/47/47
f 111/50/50 110/49/49 113/52/52 114/53/53
f 113/52/52 115/54/54 116/55/55 114/53/53
f 116/55/55 117/56/56 118/57/57 114/53/53
f 118/57/57 112/51/51 111/50/50 114/53/53
f 118/57/57 117/56/56 119/58/58 120/59/59
f 119/58/58 66/5/5 64/3/3 120/59/59
f 64/3/3 63/2/2 121/60/60 120/59/59
f 121/60/60 112/51/51 118/57/57 120/59/59
f 121/60/60 63/2/2 86/25/25 122/61/61
f 86/25/25 85/24/24 105/44/44 122/61/61
f 105/44/44 103/42/42 107/46/46 122/61/61
f 107/46/46 112/51/51 121/60/60 122/61/61
s 2
f 23/62/62 24/63/63 20/64/64 11/65/65
f 20/64/64 24/63/63 21/66/66 6/67/67
f 21/66/66 24/63/63 22/68/68 8/69/69
f 22/68/68 24/63/63 23/62/62 12/70/70
f 22/68/68 28/71/71 25/72/72 8/69/69
f 25/72/72 28/71/71 26/73/73 1/74/74
f 26/73/73 28/71/71 27/75/75 9/76/76
f 27/75/75 28/71/71 22/68/68 12/70/70
f 27/75/75 32/77/77 29/78/78 9/76/76
f 29/78/78 32/77/77 30/79/79 4/80/80
f 30/79/79 32/77/77 31/81/81 10/82/82
f 31/81/81 32/77/77 27/75/75 12/70/70
f 31/81/81 35/83/83 33/84/84 10/82/82
f 33/84/84 35/83/83 34/85/85 7/86/86
f 34/85/85 35/83/83 23/62/62 11/65/65
f 23/62/62 35/83/83 31/81/81 12/70/70
f 38/87/87 39/88/88 30/79/79 10/82/82
f 30/79/79 39/88/88 36/89/89 4/80/80
f 36/89/89 39/88/88 37/90/90 13/91/91
f 37/90/90 39/88/88 38/87/87 16/92/92
f 37/90/90 43/93/93 40/94/94 13/91/91
f 40/94/94 43/93/93 41/95/95 2/96/96
f 41/95/95 43/93/93 42/97/97 14/98/98
f 42/97/97 43/93/93 37/90/90 16/92/92
f 42/97/97 47/99/99 44/100/100 14/98/98
f 44/100/100 47/99/99 45/101/101 5/102/102
f 45/101/101 47/99/99 46/103/103 15/104/104
f 46/103/103 47/99/99 42/97/97 16/92/92
f 46/103/103 49/105/105 48/106/106 15/104/104
f 48/106/106 49/105/105 33/84/84 7/86/86
f 33/84/84 49/105/105 38/87/87 10/82/82
f 38/87/87 49/105/105 46/103/103 16/92/92
f 52/107/107 53/108/108 45/101/101 15/104/104
f 45/101/101 53/108/108 50/109/109 5/102/102
f 50/109/109 53/108/108 51/110/110 17/111/111
f 51/110/110 53/108/108 52/107/107 19/112/112
f 51/110/110 57/113/113 54/114/114 17/111/111
f 54/114/114 57/113/113 55/115/115 3/116/116
f 55/115/115 57/113/113 56/117/117 18/118/118
f 56/117/117 57/113/113 51/110/110 19/112/112
f 56/117/117 60/119/119 58/120/120 18/118/118
f 58/120/120 60/119/119 20/64/64 6/67/67
f 20/64/64 60/119/119 59/121/121 11/65/65
f 59/121/121 60/119/119 56/117/117 19/112/112
f 59/121/121 61/122/122 34/85/85 11/65/65
f 34/85/85 61/122/122 48/106/106 7/86/86
f 48/106/106 61/122/122 52/107/107 15/104/104
f 52/107/107 61/122/122 59/121/121 19/112/112
s 3
f 6/123/123 21/124/124 67/6/125 66/5/126
s off
f 21/124/127 8/125/128 68/7/129 67/6/130
f 8/125/131 25/126/132 71/10/133 68/7/134
s 4
f 25/126/135 1/127/136 73/12/137 71/10/138
f 1/127/136 26/128/139 74/13/140 73/12/137
f 26/128/139 9/129/141 75/14/142 74/13/140
s 5
f 9/129/143 29/130/144 77/16/145 75/14/146
f 29/130/144 4/131/147 79/18/148 77/16/145
s 6
f 4/131/149 36/132/150 89/28/151 79/18/152
f 36/132/150 13/133/153 90/29/154 89/28/151
f 13/133/153 40/134/155 93/32/156 90/29/154
f 40/134/155 2/135/157 95/34/158 93/32/156
s off
f 2/135/159 41/136/160 96/35/161 95/34/162
f 41/136/163 14/137/164 97/36/165 96/35/166
s 7
f 14/137/167 44/138/168 99/38/169 97/36/170
f 44/138/168 5/139/171 101/40/172 99/38/169
f 5/139/171 50/140/173 109/48/174 101/40/172
s off
f 50/140/175 17/141/176 110/49/177 109/48/178
f 17/141/179 54/142/180 113/52/181 110/49/182
f 54/142/183 3/143/184 115/54/185 113/52/186
s 8
f 3/143/187 55/144/188 116/55/189 115/54/190
f 55/144/188 18/145/191 117/56/192 116/55/189
f 18/145/191 58/146/193 119/58/194 117/56/192
s 3
f 58/146/195 6/123/123 66/5/126 119/58/196
