# This file uses centimeters as units for non-parametric coordinates.

mtllib Meat.mtl
g default
v 0.951057 0.537857 -0.357852
v 0.809018 0.537857 -0.636621
v 0.587786 0.537857 -0.857853
v 0.309017 0.537857 -0.999892
v 0.000000 0.537857 -1.048836
v -0.309017 0.537857 -0.999892
v -0.587785 0.537857 -0.857852
v -0.809017 0.537857 -0.636621
v -0.951057 0.537857 -0.357852
v -1.000000 0.537857 -0.048835
v -0.951057 0.537857 0.260182
v -0.809017 0.537857 0.538950
v -0.587785 0.537857 0.760182
v -0.309017 0.537857 0.902222
v -0.000000 0.537857 0.951165
v 0.309017 0.537857 0.902222
v 0.587785 0.537857 0.760182
v 0.809017 0.537857 0.538950
v 0.951057 0.537857 0.260182
v 1.000000 0.537857 -0.048835
v 0.951057 0.851912 -0.357852
v 0.809018 0.851912 -0.636621
v 0.587786 0.851912 -0.857853
v 0.309017 0.851912 -0.999892
v 0.000000 0.851912 -1.048836
v -0.309017 0.851912 -0.999892
v -0.587785 0.851912 -0.857852
v -0.809017 0.851912 -0.636621
v -0.951057 0.851912 -0.357852
v -1.000000 0.851912 -0.048835
v -0.951057 0.851912 0.260182
v -0.809017 0.851912 0.538950
v -0.587785 0.851912 0.760182
v -0.309017 0.851912 0.902222
v -0.000000 0.851912 0.951165
v 0.309017 0.851912 0.902222
v 0.587785 0.851912 0.760182
v 0.809017 0.851912 0.538950
v 0.951057 0.851912 0.260182
v 1.000000 0.851912 -0.048835
v 0.000000 0.537857 -0.048835
v 0.000000 0.851912 -0.048835
vt 0.374203 0.317376
vt 0.386175 0.317376
vt 0.386175 0.677453
vt 0.374203 0.677453
vt 0.398148 0.317376
vt 0.398148 0.677453
vt 0.410120 0.317376
vt 0.410120 0.677453
vt 0.422093 0.317376
vt 0.422093 0.677453
vt 0.434065 0.317376
vt 0.434065 0.677453
vt 0.446038 0.317376
vt 0.446038 0.677453
vt 0.458011 0.317376
vt 0.458011 0.677453
vt 0.469983 0.317376
vt 0.469983 0.677453
vt 0.481956 0.317376
vt 0.481956 0.677453
vt 0.493928 0.317376
vt 0.493928 0.677453
vt 0.505901 0.317376
vt 0.505901 0.677453
vt 0.517873 0.317376
vt 0.517873 0.677453
vt 0.529846 0.317376
vt 0.529846 0.677453
vt 0.541819 0.317376
vt 0.541819 0.677453
vt 0.553791 0.317376
vt 0.553791 0.677453
vt 0.565764 0.317376
vt 0.565764 0.677453
vt 0.577736 0.317376
vt 0.577736 0.677453
vt 0.589709 0.317376
vt 0.589709 0.677453
vt 0.601681 0.317376
vt 0.601681 0.677453
vt 0.613654 0.317376
vt 0.613654 0.677453
vt 0.615004 0.079752
vt 0.636261 0.121472
vt 0.493928 0.161732
vt 0.581895 0.046643
vt 0.540175 0.025386
vt 0.493928 0.018061
vt 0.447682 0.025386
vt 0.405962 0.046643
vt 0.372853 0.079752
vt 0.351596 0.121472
vt 0.344271 0.167718
vt 0.351596 0.213965
vt 0.372853 0.255685
vt 0.405962 0.288794
vt 0.447682 0.310051
vt 0.493928 0.317376
vt 0.540175 0.310051
vt 0.581895 0.288794
vt 0.615004 0.255685
vt 0.636261 0.213965
vt 0.643586 0.167718
vt 0.636261 0.872457
vt 0.615004 0.914176
vt 0.493928 0.820224
vt 0.581895 0.947285
vt 0.540175 0.968542
vt 0.493928 0.975867
vt 0.447682 0.968542
vt 0.405962 0.947285
vt 0.372853 0.914176
vt 0.351596 0.872457
vt 0.344271 0.826210
vt 0.351596 0.779963
vt 0.372853 0.738244
vt 0.405962 0.705135
vt 0.447682 0.683877
vt 0.493928 0.676553
vt 0.540175 0.683877
vt 0.581895 0.705135
vt 0.615004 0.738244
vt 0.636261 0.779963
vt 0.643586 0.826210
vn 0.951057 0.000000 -0.309016
vn 0.809017 0.000000 -0.587785
vn 0.809017 0.000000 -0.587785
vn 0.951057 0.000000 -0.309016
vn 0.587785 0.000000 -0.809017
vn 0.587785 0.000000 -0.809017
vn 0.309017 0.000000 -0.951057
vn 0.309017 0.000000 -0.951057
vn 0.000000 0.000000 -1.000000
vn 0.000000 0.000000 -1.000000
vn -0.309017 0.000000 -0.951056
vn -0.309017 0.000000 -0.951056
vn -0.587785 0.000000 -0.809017
vn -0.587785 0.000000 -0.809017
vn -0.809017 0.000000 -0.587785
vn -0.809017 0.000000 -0.587785
vn -0.951057 0.000000 -0.309017
vn -0.951057 0.000000 -0.309017
vn -1.000000 0.000000 0.000000
vn -1.000000 0.000000 0.000000
vn -0.951057 0.000000 0.309017
vn -0.951057 0.000000 0.309017
vn -0.809017 0.000000 0.587785
vn -0.809017 0.000000 0.587785
vn -0.587785 0.000000 0.809017
vn -0.587785 0.000000 0.809017
vn -0.309017 0.000000 0.951057
vn -0.309017 0.000000 0.951057
vn -0.000000 0.000000 1.000000
vn -0.000000 0.000000 1.000000
vn 0.309017 0.000000 0.951056
vn 0.309017 0.000000 0.951056
vn 0.587785 0.000000 0.809017
vn 0.587785 0.000000 0.809017
vn 0.809017 0.000000 0.587785
vn 0.809017 0.000000 0.587785
vn 0.951057 0.000000 0.309017
vn 0.951057 0.000000 0.309017
vn 1.000000 0.000000 0.000001
vn 1.000000 0.000000 0.000001
vn 0.000000 -1.000000 -0.000000
vn 0.000000 -1.000000 0.000000
vn 0.000000 -1.000000 0.000000
vn 0.000000 -1.000000 0.000000
vn 0.000000 -1.000000 0.000000
vn 0.000000 -1.000000 0.000000
vn 0.000000 -1.000000 0.000000
vn 0.000000 -1.000000 0.000000
vn 0.000000 -1.000000 0.000000
vn 0.000000 -1.000000 -0.000000
vn 0.000000 -1.000000 0.000000
vn 0.000000 -1.000000 0.000000
vn 0.000000 -1.000000 0.000000
vn 0.000000 -1.000000 -0.000000
vn 0.000000 -1.000000 -0.000000
vn 0.000000 -1.000000 0.000000
vn 0.000000 -1.000000 0.000000
vn 0.000000 -1.000000 0.000000
vn 0.000000 -1.000000 0.000000
vn 0.000000 -1.000000 0.000000
vn 0.000000 -1.000000 0.000000
vn 0.000000 1.000000 0.000000
vn 0.000000 1.000000 0.000000
vn 0.000000 1.000000 -0.000000
vn 0.000000 1.000000 0.000000
vn 0.000000 1.000000 0.000000
vn 0.000000 1.000000 0.000000
vn 0.000000 1.000000 -0.000000
vn 0.000000 1.000000 0.000000
vn 0.000000 1.000000 0.000000
vn 0.000000 1.000000 -0.000000
vn 0.000000 1.000000 0.000000
vn 0.000000 1.000000 0.000000
vn 0.000000 1.000000 0.000000
vn 0.000000 1.000000 0.000000
vn 0.000000 1.000000 0.000000
vn 0.000000 1.000000 -0.000000
vn 0.000000 1.000000 -0.000000
vn 0.000000 1.000000 0.000000
vn 0.000000 1.000000 0.000000
vn 0.000000 1.000000 0.000000
vn 0.000000 1.000000 0.000000
s 1
g polySurface18 polySurface16
usemtl lambert13SG
f 1/1/1 2/2/2 22/3/3 21/4/4
f 2/2/2 3/5/5 23/6/6 22/3/3
f 3/5/5 4/7/7 24/8/8 23/6/6
f 4/7/7 5/9/9 25/10/10 24/8/8
f 5/9/9 6/11/11 26/12/12 25/10/10
f 6/11/11 7/13/13 27/14/14 26/12/12
f 7/13/13 8/15/15 28/16/16 27/14/14
f 8/15/15 9/17/17 29/18/18 28/16/16
f 9/17/17 10/19/19 30/20/20 29/18/18
f 10/19/19 11/21/21 31/22/22 30/20/20
f 11/21/21 12/23/23 32/24/24 31/22/22
f 12/23/23 13/25/25 33/26/26 32/24/24
f 13/25/25 14/27/27 34/28/28 33/26/26
f 14/27/27 15/29/29 35/30/30 34/28/28
f 15/29/29 16/31/31 36/32/32 35/30/30
f 16/31/31 17/33/33 37/34/34 36/32/32
f 17/33/33 18/35/35 38/36/36 37/34/34
f 18/35/35 19/37/37 39/38/38 38/36/36
f 19/37/37 20/39/39 40/40/40 39/38/38
f 20/39/39 1/41/1 21/42/4 40/40/40
s 2
f 2/43/41 1/44/42 41/45/43
f 3/46/44 2/43/41 41/45/43
f 4/47/45 3/46/44 41/45/43
f 5/48/46 4/47/45 41/45/43
f 6/49/47 5/48/46 41/45/43
f 7/50/48 6/49/47 41/45/43
f 8/51/49 7/50/48 41/45/43
f 9/52/50 8/51/49 41/45/43
f 10/53/51 9/52/50 41/45/43
f 11/54/52 10/53/51 41/45/43
f 12/55/53 11/54/52 41/45/43
f 13/56/54 12/55/53 41/45/43
f 14/57/55 13/56/54 41/45/43
f 15/58/56 14/57/55 41/45/43
f 16/59/57 15/58/56 41/45/43
f 17/60/58 16/59/57 41/45/43
f 18/61/59 17/60/58 41/45/43
f 19/62/60 18/61/59 41/45/43
f 20/63/61 19/62/60 41/45/43
f 1/44/42 20/63/61 41/45/43
s 3
f 21/64/62 22/65/63 42/66/64
f 22/65/63 23/67/65 42/66/64
f 23/67/65 24/68/66 42/66/64
f 24/68/66 25/69/67 42/66/64
f 25/69/67 26/70/68 42/66/64
f 26/70/68 27/71/69 42/66/64
f 27/71/69 28/72/70 42/66/64
f 28/72/70 29/73/71 42/66/64
f 29/73/71 30/74/72 42/66/64
f 30/74/72 31/75/73 42/66/64
f 31/75/73 32/76/74 42/66/64
f 32/76/74 33/77/75 42/66/64
f 33/77/75 34/78/76 42/66/64
f 34/78/76 35/79/77 42/66/64
f 35/79/77 36/80/78 42/66/64
f 36/80/78 37/81/79 42/66/64
f 37/81/79 38/82/80 42/66/64
f 38/82/80 39/83/81 42/66/64
f 39/83/81 40/84/82 42/66/64
f 40/84/82 21/64/62 42/66/64
